<?xml version="1.0" encoding="UTF-8" standalone="no"?>
<!-- Created with Inkscape (http://www.inkscape.org/) -->

<svg
   xmlns:dc="http://purl.org/dc/elements/1.1/"
   xmlns:cc="http://creativecommons.org/ns#"
   xmlns:rdf="http://www.w3.org/1999/02/22-rdf-syntax-ns#"
   xmlns:svg="http://www.w3.org/2000/svg"
   xmlns="http://www.w3.org/2000/svg"
   xmlns:sodipodi="http://sodipodi.sourceforge.net/DTD/sodipodi-0.dtd"
   xmlns:inkscape="http://www.inkscape.org/namespaces/inkscape"
   width="744.09448819"
   height="1052.3622047"
   id="svg2"
   version="1.1"
   inkscape:version="0.48.3.1 r9886"
   sodipodi:docname="gears.svg">
  <sodipodi:namedview
     id="base"
     pagecolor="#ffffff"
     bordercolor="#666666"
     borderopacity="1.0"
     inkscape:pageopacity="0.0"
     inkscape:pageshadow="2"
     inkscape:zoom="1.979899"
     inkscape:cx="327.7616"
     inkscape:cy="843.84447"
     inkscape:document-units="px"
     inkscape:current-layer="svg2"
     showgrid="false"
     inkscape:window-width="1920"
     inkscape:window-height="1057"
     inkscape:window-x="0"
     inkscape:window-y="0"
     inkscape:window-maximized="1" />
  <defs
     id="defs4" />
  <metadata
     id="metadata7">
    <rdf:RDF>
      <cc:Work
         rdf:about="">
        <dc:format>image/svg+xml</dc:format>
        <dc:type
           rdf:resource="http://purl.org/dc/dcmitype/StillImage" />
        <dc:title />
      </cc:Work>
    </rdf:RDF>
  </metadata>
  <path
     style="fill:#000000;stroke:none"
     d="m 194.98084,162.79779 -0.94931,2.25918 -0.26927,1.62022 0.0548,0.61157 -2.44631,0.32404 -0.10954,-0.59788 -0.6846,-1.51068 -1.49242,-1.93514 -1.52894,0.41076 -0.32861,2.42805 0.1643,1.63847 0.20538,0.57963 -2.28199,0.94475 -0.26015,-0.55681 -1.04516,-1.28249 -1.94425,-1.47872 -1.37377,0.79413 0.30579,2.42348 0.58876,1.54719 0.34686,0.51117 -1.95796,1.48787 -0.3925,-0.46553 -1.33725,-0.95844 -2.26831,-0.92649 -1.12274,1.12274 0.92649,2.25918 0.96757,1.33725 0.46553,0.40163 -1.50156,1.94883 -0.49748,-0.34686 -1.54263,-0.57963 -2.43717,-0.31492 -0.79413,1.3692 1.48785,1.95795 1.27336,1.04516 0.55681,0.26015 -0.94931,2.27286 -0.57507,-0.20538 -1.62934,-0.1643 -2.43718,0.32404 -0.41076,1.53351 1.94427,1.50155 1.50155,0.67547 0.59788,0.11867 -0.31492,2.43718 -0.61156,-0.0456 -1.62935,0.26014 -2.25918,0.94475 0,1.58827 2.25918,0.94475 1.62935,0.2647 0.61156,-0.0456 0.31492,2.43718 -0.59788,0.11867 -1.50155,0.67547 -1.94427,1.49699 0.41076,1.5335 2.43718,0.32861 1.62934,-0.1643 0.57507,-0.20538 0.94931,2.27286 -0.55681,0.26015 -1.27336,1.04059 -1.48785,1.95795 0.79413,1.36921 2.43717,-0.31492 1.54263,-0.57507 0.49748,-0.34686 1.50156,1.94427 -0.46553,0.40163 -0.96757,1.33725 -0.92649,2.26374 1.12274,1.11818 2.26831,-0.92193 1.33725,-0.95844 0.3925,-0.46553 1.95796,1.48787 -0.34686,0.51117 -0.58876,1.54262 -0.30579,2.42348 1.37377,0.79414 1.94425,-1.47873 1.04516,-1.28248 0.26015,-0.55225 2.28199,0.94475 -0.20538,0.57506 -0.1643,1.64304 0.32861,2.42349 1.52894,0.41532 1.49242,-1.93514 0.6846,-1.51068 0.10954,-0.59788 2.44631,0.32404 -0.0548,0.60701 0.26927,1.62022 0.94931,2.26374 1.57459,0 0.94474,-2.26374 0.27384,-1.62022 -0.0548,-0.60701 2.44631,-0.32404 0.10954,0.59788 0.67091,1.51068 1.50155,1.93514 1.5335,-0.41532 0.32405,-2.42349 -0.15974,-1.64304 -0.20995,-0.57506 2.27287,-0.94475 0.27384,0.55225 1.04516,1.28248 1.94425,1.47873 1.36921,-0.79414 -0.30579,-2.42348 -0.5842,-1.54262 -0.34686,-0.51117 1.95339,-1.48787 0.39251,0.46553 1.33724,0.95844 2.27288,0.92193 1.11817,-1.11818 -0.93561,-2.26374 -0.95388,-1.33725 -0.47009,-0.40163 1.50156,-1.94427 0.50204,0.34686 1.54262,0.57507 2.43718,0.31492 0.78957,-1.36921 -1.48786,-1.95795 -1.27336,-1.04059 -0.55224,-0.26015 0.93562,-2.27286 0.57506,0.20538 1.64304,0.1643 2.43261,-0.32861 0.40164,-1.5335 -1.93514,-1.49699 -1.497,-0.67547 -0.59787,-0.11867 0.31491,-2.43718 0.60701,0.0456 1.63391,-0.2647 2.25918,-0.94475 0,-1.58827 -2.25918,-0.94475 -1.63391,-0.26014 -0.60701,0.0456 -0.31491,-2.43718 0.59787,-0.11867 1.497,-0.67547 1.93514,-1.50155 -0.40164,-1.53351 -2.43261,-0.32404 -1.64304,0.1643 -0.57506,0.20538 -0.93562,-2.27286 0.55224,-0.26015 1.27336,-1.04516 1.48786,-1.95795 -0.78957,-1.3692 -2.43718,0.31492 -1.54262,0.57963 -0.50204,0.34686 -1.50156,-1.94883 0.47009,-0.40163 0.95388,-1.33725 0.93561,-2.25918 -1.11817,-1.12274 -2.27288,0.92649 -1.33724,0.95844 -0.39251,0.46553 -1.95339,-1.48787 0.34686,-0.51117 0.5842,-1.54719 0.30579,-2.42348 -1.36921,-0.79413 -1.94425,1.47872 -1.04516,1.28249 -0.27384,0.55681 -2.27287,-0.94475 0.20995,-0.57963 0.15974,-1.63847 -0.32405,-2.42805 -1.5335,-0.41076 -1.50155,1.93514 -0.67091,1.51068 -0.10954,0.59788 -2.44631,-0.32404 0.0548,-0.61157 -0.27384,-1.62022 -0.94474,-2.25918 -1.57459,0 z m -5.59089,8.00525 3.54623,2.87988 1.20489,2.28656 0.13235,1.20033 2.98943,0 0.1141,-1.20033 1.22314,-2.28656 3.54623,-2.87988 0.67547,0.2145 1.15926,4.41795 -0.356,2.56041 -0.60244,1.04515 2.41891,1.75258 0.80327,-0.88999 2.32307,-1.13643 4.56399,-0.24646 0.41533,0.56594 -1.6476,4.26733 -1.80278,1.86212 -1.0908,0.48378 0.4062,1.2551 c -1.92555,-5.68752 -7.30841,-9.78064 -13.64635,-9.78064 -7.95348,0 -14.3994,6.44592 -14.3994,14.3994 0,7.95348 6.44592,14.40397 14.3994,14.40397 3.10683,0 5.98516,-0.98261 8.33843,-2.65624 2.44739,-1.74059 4.32626,-4.22884 5.30792,-7.12896 0.49083,-1.45006 0.75762,-3.00321 0.75762,-4.61877 0,-1.49127 -0.22715,-2.9283 -0.64809,-4.28103 l 0.41076,1.25511 1.17295,-0.25103 2.54671,0.43815 3.84289,2.49194 0,0.69829 -3.84289,2.47825 -2.54671,0.44727 -1.17295,-0.24646 -0.52029,1.58828 -0.4062,1.25509 1.0908,0.48835 1.80278,1.85755 1.6476,4.26734 -0.41533,0.5705 -4.56399,-0.25102 -2.32307,-1.13644 -0.80327,-0.88998 -1.33724,0.96757 -1.08167,0.78957 0.60244,1.03146 0.356,2.56954 -1.15926,4.42251 -0.67547,0.2145 -3.54623,-2.87988 -1.22314,-2.29112 -0.1141,-1.19577 -2.98943,0 -0.13235,1.19577 -1.20489,2.29112 -3.54623,2.87988 -0.67547,-0.2145 -1.17295,-4.42251 0.36512,-2.56954 0.59332,-1.03146 -2.41891,-1.75714 -0.79414,0.88998 -2.33221,1.13644 -4.56399,0.25102 -0.41532,-0.5705 1.6476,-4.26734 1.80278,-1.85755 1.09992,-0.48835 -0.92193,-2.84337 -1.17294,0.24646 -2.55128,-0.44727 -3.83832,-2.47825 0,-0.69829 3.83832,-2.49194 2.55128,-0.43815 1.17294,0.25103 0.92193,-2.84794 -1.09992,-0.48378 -1.80278,-1.86212 -1.6476,-4.26733 0.41532,-0.56594 4.56399,0.24646 2.33221,1.13643 0.79414,0.88999 2.41891,-1.75258 -0.59332,-1.04515 -0.36512,-2.56041 1.17295,-4.41795 0.67547,-0.2145 z m 5.71869,8.05088 c 0.0105,-5.3e-4 0.0214,5.2e-4 0.0319,0 l 0,8.19694 c -0.79459,0.10902 -1.52233,0.42259 -2.13138,0.88542 l -5.79628,-5.80084 c 2.10966,-1.91248 4.86163,-3.12776 7.89571,-3.28152 z m 1.28705,0 c 3.04612,0.14794 5.81039,1.362 7.92766,3.28152 l -5.80085,5.80084 c -0.60791,-0.46196 -1.33396,-0.77583 -2.12681,-0.88542 l 0,-8.19694 z m -10.06818,4.16693 5.79627,5.80085 c -0.45942,0.60812 -0.76843,1.33495 -0.87628,2.12681 l -8.20151,0 c 0.14689,-3.04656 1.36239,-5.81067 3.28152,-7.92766 z m 18.88125,0 c 1.92012,2.11699 3.13451,4.8811 3.28152,7.92766 l -8.20607,0 c -0.10785,-0.79186 -0.41686,-1.51869 -0.87629,-2.12681 l 5.80084,-5.80085 z m -22.16277,9.18277 8.20151,0 c 0.11,0.79061 0.42068,1.51906 0.88085,2.12681 l -5.80084,5.80085 c -1.91952,-2.11727 -3.13358,-4.88154 -3.28152,-7.92766 z m 17.23822,0 8.20607,0 c -0.14806,3.04612 -1.36101,5.81039 -3.28152,7.92766 l -5.8054,-5.80085 c 0.46017,-0.60775 0.77085,-1.3362 0.88085,-2.12681 z m -7.27044,3.01223 c 0.60795,0.46201 1.33458,0.7717 2.12681,0.88085 l 0,8.20151 c -3.04656,-0.14701 -5.81067,-1.3614 -7.92766,-3.28152 l 5.80085,-5.80084 z m 5.50417,0 5.80541,5.80084 c -2.11727,1.92051 -4.88154,3.13346 -7.92766,3.28152 l 0,-8.20151 c 0.79049,-0.10972 1.51544,-0.41971 2.12225,-0.88085 z"
     id="path6679-09"
     inkscape:connector-curvature="0" />
  <g
     inkscape:label="Layer 1"
     inkscape:groupmode="layer"
     id="layer1" />
  <path
     style="fill:#000000;stroke:none;stroke-width:0.62426387999999999"
     d="m 65.90485,11.428636 -1.69722,4.057715 -0.48771,2.906729 0.0975,1.092461 -4.38935,0.585248 -0.19508,-1.072954 -1.22902,-2.711646 -2.67263,-3.472468 -2.75066,0.741314 -0.58525,4.350339 0.29262,2.945745 0.37066,1.033937 -4.096733,1.697217 -0.468198,-0.99492 -1.872791,-2.301973 -3.491976,-2.653122 -2.45804,1.424102 0.546231,4.350339 1.053446,2.770171 0.624264,0.916887 -3.511485,2.67263 -0.702297,-0.838854 -2.399514,-1.716726 -4.077223,-1.658201 -2.00935,2.009349 1.658201,4.057716 1.736234,2.399514 0.838855,0.721805 -2.692138,3.491976 -0.89738,-0.624264 -2.770171,-1.033937 -4.369847,-0.565739 -1.424102,2.458039 2.67263,3.511484 2.282465,1.872792 0.99492,0.468198 -1.697217,4.077223 -1.033937,-0.370656 -2.926237,-0.292624 -4.369847,0.585247 -0.741313,2.750663 3.491976,2.692138 2.692138,1.209511 1.072953,0.214591 -0.565739,4.369847 -1.092462,-0.07803 -2.926237,0.468198 -4.057715,1.697214 0,2.8482 4.057715,1.69722 2.926237,0.4682 1.092462,-0.078 0.565739,4.36985 -1.072953,0.21459 -2.692138,1.20951 -3.491976,2.69214 0.741313,2.75066 4.369847,0.58525 2.926237,-0.29262 1.033937,-0.37066 1.697217,4.07723 -0.99492,0.46819 -2.282465,1.87279 -2.67263,3.51149 1.424102,2.45804 4.369847,-0.56574 2.770171,-1.03394 0.89738,-0.62426 2.692138,3.49197 -0.838855,0.72181 -1.736234,2.39951 -1.658201,4.05772 2.00935,2.009349 4.077223,-1.658199 2.399514,-1.71673 0.702297,-0.83885 3.511485,2.67263 -0.624264,0.91688 -1.053446,2.770179 -0.546231,4.35033 2.45804,1.42411 3.491976,-2.65313 1.872791,-2.30197 0.468198,-0.99492 4.096733,1.69722 -0.37066,1.03394 -0.29262,2.94574 0.58525,4.35034 2.75066,0.74131 2.67263,-3.47247 1.22902,-2.71164 0.19508,-1.07295 4.38935,0.58524 -0.0975,1.09246 0.48771,2.90673 1.69722,4.05772 2.82869,0 1.69722,-4.05772 0.48771,-2.90673 -0.0975,-1.09246 4.38935,-0.58524 0.19508,1.07295 1.20951,2.71164 2.69214,3.47247 2.75067,-0.74131 0.58524,-4.35034 -0.29262,-2.94574 -0.37066,-1.03394 4.07723,-1.69722 0.4877,0.99492 1.87279,2.30197 3.49198,2.65313 2.45804,-1.42411 -0.54623,-4.35033 -1.05345,-2.770179 -0.62426,-0.91688 3.51148,-2.67263 0.7023,0.83885 2.39951,1.71673 4.07723,1.658199 2.00935,-2.009349 -1.67771,-4.05772 -1.71673,-2.39951 -0.83885,-0.72181 2.69214,-3.49197 0.89737,0.62426 2.77018,1.03394 4.36984,0.56574 1.4241,-2.45804 -2.67263,-3.51149 -2.28246,-1.87279 -0.99492,-0.46819 1.67771,-4.07723 1.03394,0.37066 2.94574,0.29262 4.36985,-0.58525 0.7218,-2.75066 -3.47246,-2.69214 -2.69214,-1.20951 -1.07296,-0.21459 0.56574,-4.36985 1.09246,0.078 2.92624,-0.4682 4.05772,-1.69722 0,-2.8482 -4.05772,-1.697214 -2.92624,-0.468198 -1.09246,0.07803 -0.56574,-4.369847 1.07296,-0.214591 2.69214,-1.209511 3.47246,-2.692138 -0.7218,-2.750663 -4.36985,-0.585247 -2.94574,0.292624 -1.03394,0.370656 -1.67771,-4.077223 0.99492,-0.468198 2.28246,-1.872792 2.67263,-3.511484 -1.4241,-2.458039 -4.36984,0.565739 -2.77018,1.033937 -0.89737,0.624264 -2.69214,-3.491976 0.83885,-0.721805 1.71673,-2.399514 1.67771,-4.057716 -2.00935,-2.009349 -4.07723,1.658201 -2.39951,1.716726 -0.7023,0.838854 -3.51148,-2.67263 0.62426,-0.916887 1.05345,-2.770171 0.54623,-4.350339 -2.45804,-1.424102 -3.49198,2.653122 -1.87279,2.301973 -0.4877,0.99492 -4.07723,-1.697217 0.37066,-1.033937 0.29262,-2.945745 -0.58524,-4.350339 -2.75067,-0.741314 -2.69214,3.472468 -1.20951,2.711646 -0.19508,1.072954 -4.38935,-0.585248 0.0975,-1.092461 -0.48771,-2.906729 -1.69722,-4.057715 -2.82869,0 z m 1.40459,14.689709 c 20.40905,0 36.96813,16.539566 36.96813,36.948616 0,20.40905 -16.55908,36.948619 -36.96813,36.948619 -20.409051,0 -36.948617,-16.539569 -36.948617,-36.948619 0,-20.40905 16.539566,-36.948616 36.948617,-36.948616 z"
     id="path6679"
     inkscape:connector-curvature="0" />
  <path
     style="fill:#000000;stroke:none"
     d="m 28.316617,162.3054 -0.776641,1.85679 -0.223173,1.33012 0.04463,0.49991 -2.008554,0.2678 -0.08927,-0.49098 -0.562402,-1.24084 -1.222987,-1.58899 -1.258695,0.33922 -0.267806,1.9907 0.133907,1.34797 0.169607,0.47312 -1.874648,0.77664 -0.214247,-0.45527 -0.856983,-1.05337 -1.597917,-1.21406 -1.124796,0.65166 0.249956,1.9907 0.482053,1.26762 0.285663,0.41957 -1.606842,1.22299 -0.321371,-0.38386 -1.098013,-0.78557 -1.865722,-0.75878 -0.919474,0.91946 0.758791,1.85681 0.794493,1.098 0.383854,0.3303 -1.231912,1.59792 -0.410637,-0.28566 -1.267621,-0.47313 -1.9996291,-0.25888 -0.651668,1.12479 1.222988,1.60684 1.0444471,0.85699 0.455278,0.21424 -0.776642,1.86573 -0.4731281,-0.16961 -1.339036,-0.1339 -1.999629,0.2678 -0.339222,1.2587 1.597917,1.23191 1.231912,0.55347 0.490979,0.0982 -0.258881,1.99963 -0.499904,-0.0357 -1.339036,0.21424 -1.856797,0.77664 0,1.30334 1.856797,0.77664 1.339036,0.21424 0.499904,-0.0357 0.258881,1.99963 -0.490979,0.0982 -1.231912,0.55347 -1.597917,1.23191 0.339222,1.2587 1.999629,0.2678 1.339036,-0.1339 0.4731281,-0.16961 0.776642,1.86573 -0.455278,0.21424 -1.0444471,0.85698 -1.222988,1.60685 0.651668,1.12479 1.9996291,-0.25888 1.267621,-0.47313 0.410637,-0.28566 1.231912,1.59792 -0.383854,0.3303 -0.794493,1.098 -0.758791,1.8568 0.919474,0.91947 1.865722,-0.75878 1.098013,-0.78557 0.321371,-0.38386 1.606842,1.22299 -0.285663,0.41957 -0.482053,1.26762 -0.249956,1.9907 1.124796,0.65166 1.597917,-1.21406 0.856983,-1.05337 0.214247,-0.45527 1.874648,0.77664 -0.169607,0.47312 -0.133907,1.34797 0.267806,1.99069 1.258695,0.33923 1.222987,-1.58899 0.562402,-1.24084 0.08927,-0.49098 2.008554,0.2678 -0.04463,0.49991 0.223173,1.33012 0.776641,1.85679 1.294403,0 0.776642,-1.85679 0.223173,-1.33012 -0.04463,-0.49991 2.008554,-0.2678 0.08927,0.49098 0.553469,1.24084 1.23192,1.58899 1.258695,-0.33923 0.267806,-1.99069 -0.133907,-1.34797 -0.169607,-0.47312 1.865723,-0.77664 0.223172,0.45527 0.856983,1.05337 1.597917,1.21406 1.124796,-0.65166 -0.249956,-1.9907 -0.482053,-1.26762 -0.285663,-0.41957 1.606842,-1.22299 0.321371,0.38386 1.098013,0.78557 1.865722,0.75878 0.919474,-0.91947 -0.767717,-1.8568 -0.785567,-1.098 -0.383855,-0.3303 1.231913,-1.59792 0.410637,0.28566 1.267621,0.47313 1.999629,0.25888 0.651667,-1.12479 -1.222987,-1.60685 -1.044448,-0.85698 -0.455277,-0.21424 0.767716,-1.86573 0.473128,0.16961 1.347962,0.1339 1.999629,-0.2678 0.330296,-1.2587 -1.588991,-1.23191 -1.231913,-0.55347 -0.490978,-0.0982 0.25888,-1.99963 0.499904,0.0357 1.339036,-0.21424 1.856798,-0.77664 0,-1.30334 -1.856798,-0.77664 -1.339036,-0.21424 -0.499904,0.0357 -0.25888,-1.99963 0.490978,-0.0982 1.231913,-0.55347 1.588991,-1.23191 -0.330296,-1.2587 -1.999629,-0.2678 -1.347962,0.1339 -0.473128,0.16961 -0.767716,-1.86573 0.455277,-0.21424 1.044448,-0.85699 1.222987,-1.60684 -0.651667,-1.12479 -1.999629,0.25888 -1.267621,0.47313 -0.410637,0.28566 -1.231913,-1.59792 0.383855,-0.3303 0.785567,-1.098 0.767717,-1.85681 -0.919474,-0.91946 -1.865722,0.75878 -1.098013,0.78557 -0.321371,0.38386 -1.606842,-1.22299 0.285663,-0.41957 0.482053,-1.26762 0.249956,-1.9907 -1.124796,-0.65166 -1.597917,1.21406 -0.856983,1.05337 -0.223172,0.45527 -1.865723,-0.77664 0.169607,-0.47312 0.133907,-1.34797 -0.267806,-1.9907 -1.258695,-0.33922 -1.23192,1.58899 -0.553469,1.24084 -0.08927,0.49098 -2.008554,-0.2678 0.04463,-0.49991 -0.223173,-1.33012 -0.776642,-1.85679 -1.294403,0 z m -1.597916,6.87372 0,11.03367 c -1.587023,0.62333 -2.84824,1.88606 -3.472572,3.47257 l -11.042592,0 c 1.000963,-7.54161 6.973558,-13.50528 14.515164,-14.50624 z m 4.490236,0 c 7.542727,1.00096 13.522012,6.96463 14.52409,14.50624 l -11.051518,0 c -0.624332,-1.58651 -1.885549,-2.84924 -3.472572,-3.47257 l 0,-11.03367 z m -2.249584,13.08686 c 2.028429,0 3.677894,1.64054 3.677894,3.66896 0,2.02842 -1.649465,3.66896 -3.677894,3.66896 -2.028422,0 -3.668962,-1.64054 -3.668962,-3.66896 0,-2.02842 1.64054,-3.66896 3.668962,-3.66896 z m -16.755816,5.90961 11.033667,0 c 0.622825,1.59161 1.890852,2.85675 3.481497,3.4815 l 0,11.03367 c -7.542762,-1.00111 -13.515567,-6.97192 -14.515164,-14.51517 z m 22.486897,0 11.042593,0 c -1.000712,7.54325 -6.980214,13.51406 -14.52409,14.51517 l 0,-11.03367 c 1.590645,-0.62475 2.858672,-1.88989 3.481497,-3.4815 z"
     id="path6679-0"
     inkscape:connector-curvature="0" />
  <path
     inkscape:connector-curvature="0"
     id="path7564"
     d="m 179.08036,7.5892858 -1.78125,0.5625 -3.09375,11.6562502 0.96875,6.75 1.5625,2.75 -6.375,4.625 -2.09375,-2.34375 -6.15625,-3 -12.03125,-0.65625 -1.09375,1.5 4.34375,11.25 4.75,4.90625 2.90625,1.28125 -2.4375,7.499997 -3.09375,-0.65625 -6.71875,1.15625 -10.125,6.5625 0,1.84375 10.125,6.53125 6.71875,1.1875 3.09375,-0.65625 2.4375,7.5 -2.90625,1.28125 -4.75,4.90625 -4.34375,11.25 1.09375,1.5 12.03125,-0.65625 6.15625,-3 2.09375,-2.34375 6.375,4.625 -1.5625,2.71875 -0.96875,6.781257 3.09375,11.65625 1.78125,0.5625 9.34375,-7.59375 3.1875,-6.03125 0.34375,-3.15626 7.875,0 0.3125,3.15626 3.21875,6.03125 9.34375,7.59375 1.78125,-0.5625 3.0625,-11.65625 -0.9375,-6.781257 -1.59375,-2.71875 6.375,-4.625 2.125,2.34375 6.125,3 12.03125,0.65625 1.09375,-1.5 -4.34375,-11.25 -4.75,-4.90625 -2.875,-1.28125 2.4375,-7.5 3.09375,0.65625 6.71875,-1.1875 10.125,-6.53125 0,-1.84375 -10.125,-6.5625 -6.71875,-1.15625 -3.09375,0.65625 -2.4375,-7.499997 2.875,-1.28125 4.75,-4.90625 4.34375,-11.25 -1.09375,-1.5 -12.03125,0.65625 -6.125,3 -2.125,2.34375 -6.375,-4.625 1.59375,-2.75 0.9375,-6.75 -3.0625,-11.6562502 -1.78125,-0.5625 -9.34375,7.5937502 -3.21875,6.03125 -0.3125,3.15625 -7.875,0 -0.34375,-3.15625 -3.1875,-6.03125 -9.34375,-7.5937502 z m 16.8125,42.7187502 c 6.65028,0 12.03125,5.380967 12.03125,12.031247 0,6.65028 -5.38097,12.0625 -12.03125,12.0625 -6.65028,0 -12.03125,-5.41222 -12.03125,-12.0625 0,-6.65028 5.38097,-12.031247 12.03125,-12.031247 z"
     style="fill:#000000;stroke:none" />
  <g
     inkscape:label="Gear40"
     transform="translate(358.0591,404.26651)"
     id="g7703" />
  <path
     inkscape:connector-curvature="0"
     id="path6679-2"
     d="m 316.22613,14.747611 -0.15755,0.275711 -0.84683,2.855582 -0.0394,1.102844 -4.47047,0.03938 -0.059,-1.102844 -0.68927,-2.24508 -0.39387,2.30416 0.0984,1.102844 -4.43107,0.590811 -0.19695,-1.083151 -1.24069,-2.73742 -0.17724,-0.236324 -0.0788,0.295406 -0.0788,2.993437 0.23632,1.083151 -4.31291,1.18162 -0.3545,-1.063459 -1.24069,-1.989059 0.23632,2.343546 0.37419,1.043764 -4.13567,1.713349 -0.47266,-1.004376 -1.89058,-2.323853 -0.25602,-0.196936 0,0.334792 0.70896,2.894969 0.51205,1.004376 -3.85997,2.225385 -0.5908,-0.925603 -1.75275,-1.61488 0.84684,2.225384 0.63019,0.925602 -3.54486,2.698033 -0.70897,-0.846828 -2.42233,-1.733042 -0.3151,-0.13786 0.0788,0.334792 1.43765,2.619257 0.74835,0.827135 -3.13128,3.150985 -0.80744,-0.728665 -2.12692,-1.122538 1.39825,1.929978 0.84682,0.728667 -2.71772,3.525165 -0.90591,-0.630197 -2.7965,-1.043765 -0.31511,-0.03938 0.15755,0.275712 2.04816,2.166304 0.94528,0.590809 -2.22537,3.879653 -0.98469,-0.512035 -2.30416,-0.512035 1.83151,1.496718 1.00438,0.472648 -1.71335,4.115976 -1.04377,-0.37418 -2.95404,-0.295404 -0.33479,0.03938 0.23632,0.236325 2.56017,1.555799 1.04377,0.354486 -1.12255,4.293219 -1.08314,-0.21663 -2.36324,0.07878 2.1466,0.964988 1.08316,0.216631 -0.57111,4.411379 -1.10285,-0.07877 -2.95405,0.472648 -0.3151,0.13786 0.29541,0.157549 2.87527,0.827134 1.10284,0.05905 0.0196,4.450768 -1.10285,0.07878 -2.22538,0.689277 2.30415,0.37418 1.10285,-0.07878 0.57112,4.41138 -1.08316,0.216631 -2.71772,1.221007 -0.27572,0.216631 0.3348,0.07878 2.97374,0.05906 1.08314,-0.236324 1.18163,4.29322 -1.04377,0.354485 -1.98905,1.260394 2.32385,-0.236324 1.04376,-0.374179 1.71335,4.115976 -1.00437,0.472648 -2.30417,1.890592 -0.19693,0.256019 0.33479,0 2.91466,-0.689279 0.965,-0.512035 2.26477,3.840264 -0.92561,0.630198 -1.59518,1.693655 2.186,-0.80744 0.90591,-0.630198 2.71772,3.525167 -0.84683,0.728666 -1.75274,2.42232 -0.11823,0.315099 0.33479,-0.09846 2.61926,-1.417944 0.80744,-0.748359 3.19037,3.111598 -0.74836,0.846828 -1.10284,2.067836 1.91028,-1.358863 0.70898,-0.846827 3.54485,2.698031 -0.63019,0.925602 -1.06347,2.7965 -0.0394,0.33479 0.29541,-0.17724 2.1663,-2.06784 0.59082,-0.9256 3.87964,2.20569 -0.49234,0.98469 -0.53172,2.28446 1.47702,-1.81182 0.47265,-1.00437 4.13566,1.71335 -0.37417,1.04376 -0.29541,2.97374 0.0394,0.3151 0.21662,-0.21663 1.5755,-2.56017 0.33479,-1.06346 4.3326,1.14223 -0.23632,1.08315 0.0985,2.30416 0.9453,-2.10722 0.19694,-1.08315 4.43107,0.59081 -0.0984,1.10284 0.49234,2.93436 0.11808,0.29541 0.15755,-0.27571 0.86653,-2.85559 0.0394,-1.10284 4.47046,-0.0394 0.059,1.10284 0.66958,2.24508 0.39388,-2.30416 -0.0985,-1.10284 4.43106,-0.59082 0.19695,1.08316 1.22101,2.73742 0.21662,0.27571 0.0788,-0.33479 0.0788,-2.99344 -0.23631,-1.08315 4.29321,-1.18162 0.35449,1.06345 1.2407,1.96937 -0.23633,-2.32385 -0.37418,-1.04377 4.11598,-1.71335 0.49234,1.00438 1.89059,2.32386 0.27572,0.21662 0,-0.35448 -0.70898,-2.89497 -0.51203,-1.00438 3.84026,-2.22538 0.6105,0.9256 1.71336,1.57549 -0.82714,-2.18599 -0.63019,-0.925605 3.54485,-2.698031 0.70898,0.846828 2.42232,1.733042 0.3151,0.118155 -0.0985,-0.315097 -1.41794,-2.619259 -0.74835,-0.827133 3.13128,-3.150987 0.82713,0.728666 2.06785,1.102844 -1.35887,-1.910284 -0.84682,-0.728666 2.71772,-3.525167 0.90591,0.630198 2.7965,1.043764 0.3348,0.03938 -0.15755,-0.275712 -2.04814,-2.166303 -0.9453,-0.59081 2.18599,-3.879652 1.00438,0.492342 2.30416,0.531729 -1.83151,-1.49672 -1.00438,-0.472648 1.69366,-4.115976 1.04375,0.374179 2.97375,0.295406 0.33479,-0.03939 -0.23632,-0.236324 -2.54048,-1.5558 -1.04377,-0.354485 1.12255,-4.29322 1.08314,0.21663 2.34355,-0.07878 -2.1466,-0.964991 -1.08316,-0.21663 0.57111,-4.411381 1.10285,0.07878 2.95405,-0.472649 0.3151,-0.13786 -0.29541,-0.157549 -2.87527,-0.827134 -1.10284,-0.05906 0,-4.450768 1.08315,-0.07878 2.22538,-0.689278 -2.30416,-0.37418 -1.10285,0.07878 -0.57111,-4.411379 1.08316,-0.216631 2.71772,-1.221007 0.2757,-0.216629 -0.33479,-0.07878 -2.97373,-0.07878 -1.08316,0.256018 -1.18162,-4.293219 1.06346,-0.354487 1.98905,-1.260394 -2.36324,0.236324 -1.04375,0.374179 -1.69366,-4.115976 1.00438,-0.472648 2.30415,-1.890592 0.19695,-0.256017 -0.3151,0 -2.91467,0.689278 -0.96499,0.512036 -2.26478,-3.840266 0.92562,-0.630197 1.57548,-1.713349 -2.18599,0.827134 -0.90591,0.630197 -2.71772,-3.525166 0.84682,-0.728666 1.73304,-2.422321 0.11823,-0.295404 -0.29541,0.07877 -2.61926,1.417943 -0.80744,0.748359 -3.19037,-3.111599 0.74836,-0.846828 1.10285,-2.087529 -1.92998,1.378557 -0.70898,0.846828 -3.54485,-2.698033 0.63019,-0.925602 1.06345,-2.796501 0.0394,-0.315098 -0.2757,0.157549 -2.16631,2.067835 -0.61051,0.925602 -3.87964,-2.20569 0.51203,-0.984683 0.53173,-2.30416 -1.49672,1.831512 -0.49235,1.004376 -4.11598,-1.713349 0.37419,-1.043764 0.29541,-2.973744 -0.0394,-0.334792 -0.23633,0.236324 -1.55579,2.560177 -0.3151,1.063458 -4.33261,-1.142234 0.23633,-1.083151 -0.0984,-2.363239 -0.96499,2.166303 -0.19695,1.083151 -4.43107,-0.590809 0.0985,-1.102846 -0.49234,-2.934356 -0.11823,-0.295405 z m -4.07658,11.028453 c 0.34471,-0.0092 0.69724,-3.72e-4 1.04375,0 0.46403,4.98e-4 0.93132,0.0018 1.39826,0.01969 0.3618,0.01329 0.72403,0.03558 1.08315,0.05909 0.0861,0.0057 0.16993,0.01329 0.25601,0.01969 0.13847,0.01 0.27556,0.02787 0.41357,0.0394 0.416,0.03473 0.82869,0.0896 1.2407,0.13786 0.0853,0.01012 0.17064,0.0089 0.25603,0.01969 0.11143,0.01389 0.22373,0.0246 0.33479,0.03939 0.38948,0.0519 0.77632,0.113429 1.16192,0.177243 0.1362,0.02262 0.27786,0.03502 0.41356,0.05908 0.0929,0.01646 0.18306,0.04195 0.27571,0.05908 0.52932,0.09791 1.05426,0.21481 1.5755,0.334794 0.44321,0.101923 0.88314,0.217594 1.31947,0.334792 0.32269,0.08666 0.6462,0.161147 0.965,0.256017 0.29101,0.08678 0.57853,0.18207 0.86652,0.275711 0.30215,0.09806 0.60749,0.190038 0.90591,0.295406 0.43371,0.153144 0.87421,0.324059 1.29978,0.492341 0.1643,0.06516 0.32919,0.129525 0.49234,0.196936 0.1584,0.06529 0.31544,0.129571 0.47265,0.196938 0.448,0.191945 0.88136,0.402003 1.31948,0.610504 0.11989,0.05703 0.23538,0.118985 0.35448,0.177243 0.46173,0.225849 0.90874,0.465142 1.35886,0.708972 0.005,0.0027 0.0151,-0.0027 0.0196,0 0.005,0.0027 0.0151,-0.0027 0.0196,0 0.42781,0.232259 0.84347,0.480619 1.2604,0.728664 0.0956,0.05685 0.20042,0.09987 0.2954,0.157551 0.29642,0.179972 0.59556,0.363623 0.88622,0.551423 0.0871,0.05632 0.16937,0.120224 0.25601,0.177241 0.31246,0.205616 0.6198,0.415547 0.92561,0.630199 0.10389,0.07293 0.212,0.142692 0.3151,0.216629 0.092,0.06593 0.18443,0.130204 0.27571,0.196937 0.3941,0.288151 0.78022,0.58345 1.16192,0.886215 0.0473,0.03748 0.0907,0.08047 0.13786,0.118155 0.39379,0.315225 0.78144,0.634377 1.16192,0.964991 0.0279,0.0242 0.051,0.05449 0.0788,0.07878 0.042,0.03669 0.0764,0.08128 0.11823,0.118155 0.22797,0.201229 0.44677,0.40395 0.66959,0.610503 0.30759,0.285152 0.60833,0.571483 0.9059,0.866522 0.29614,0.293609 0.60025,0.583114 0.88622,0.886215 0.0192,0.02033 0.0399,0.0387 0.059,0.05909 0.33394,0.355009 0.66469,0.715281 0.98468,1.083152 0.0519,0.0599 0.10585,0.117007 0.15755,0.177243 0.0364,0.04242 0.0622,0.09526 0.0985,0.13786 0.27427,0.32227 0.54407,0.653105 0.80744,0.984684 0.0746,0.09402 0.16267,0.18098 0.23633,0.275711 0.0749,0.09613 0.14269,0.198537 0.21662,0.295404 0.28763,0.377451 0.57367,0.754076 0.84683,1.142234 0.0356,0.0506 0.0631,0.106755 0.0985,0.157549 0.30627,0.439247 0.59866,0.886411 0.88622,1.339169 0.32049,0.504611 0.62908,1.015443 0.9256,1.536107 0.29514,0.518223 0.57622,1.042131 0.84683,1.575493 0.15147,0.298429 0.28972,0.603192 0.43326,0.905908 0.20981,0.442468 0.41794,0.887941 0.61051,1.33917 0.0121,0.027 0.0279,0.05173 0.0394,0.07878 0.13499,0.318382 0.26761,0.642468 0.39388,0.96499 0.0945,0.241946 0.18616,0.484294 0.2757,0.728667 0.11793,0.32075 0.22565,0.6405 0.33479,0.964988 0.0858,0.255785 0.17564,0.509823 0.25602,0.768054 0.0408,0.130431 0.0788,0.262886 0.11823,0.393873 0.11189,0.372416 0.21481,0.745787 0.3151,1.122539 0.0229,0.08626 0.0565,0.169504 0.0788,0.256018 0.0252,0.09764 0.0346,0.19749 0.059,0.295404 0.10026,0.401153 0.20847,0.795694 0.29541,1.201315 0.0211,0.0991 0.0388,0.196009 0.059,0.295404 0.0648,0.314487 0.1205,0.628326 0.17724,0.945296 0.0121,0.07168 0.027,0.144806 0.0394,0.21663 0.0921,0.53496 0.16731,1.072374 0.23633,1.614879 0.0616,0.484413 0.11475,0.967296 0.15755,1.457331 0.0309,0.353043 0.058,0.708139 0.0788,1.063458 0.0106,0.169656 0.0121,0.341889 0.0196,0.512035 0.0255,0.566213 0.0399,1.142139 0.0394,1.71335 -4.4e-4,0.464039 -0.002,0.931305 -0.0196,1.39825 -0.0162,0.434255 -0.0479,0.869451 -0.0788,1.299781 -10e-4,0.01314 0.001,0.02621 0,0.03939 -6.4e-4,0.01299 0.001,0.02641 0,0.03938 -0.0414,0.560416 -0.0917,1.120712 -0.15755,1.673962 -0.008,0.06587 -0.0121,0.131035 -0.0196,0.196936 -0.0106,0.08642 -0.0281,0.169781 -0.0394,0.256019 -0.0722,0.548851 -0.16018,1.093517 -0.25602,1.634574 -0.0969,0.547124 -0.1946,1.095969 -0.3151,1.634574 -0.0175,0.07855 -0.0411,0.157996 -0.059,0.236324 -0.0198,0.08595 -0.0387,0.170291 -0.059,0.256017 -0.10902,0.457486 -0.22881,0.908084 -0.3545,1.358863 -0.0183,0.06611 -0.0403,0.131005 -0.059,0.196938 -0.0823,0.288925 -0.16699,0.580498 -0.25602,0.86652 -0.0331,0.106453 -0.0843,0.209093 -0.11823,0.315099 -0.12865,0.401744 -0.25236,0.806179 -0.39388,1.201314 -0.13755,0.384105 -0.28378,0.764573 -0.43325,1.142232 -0.10208,0.257101 -0.20747,0.513794 -0.3151,0.768054 -0.0275,0.06531 -0.0509,0.131835 -0.0788,0.196936 -0.20512,0.47825 -0.42591,0.950999 -0.64989,1.417944 -0.006,0.01314 -0.0136,0.02621 -0.0196,0.03939 -0.14813,0.307813 -0.29685,0.622861 -0.45296,0.925602 -0.0405,0.07831 -0.0772,0.158343 -0.11808,0.236324 -0.17134,0.325717 -0.35113,0.645044 -0.53174,0.96499 -0.0737,0.130809 -0.14148,0.264103 -0.21662,0.393873 -0.0933,0.160744 -0.19977,0.313435 -0.29541,0.472648 -0.21508,0.358468 -0.4234,0.71334 -0.64989,1.063458 -0.0563,0.08709 -0.1202,0.169423 -0.17724,0.256018 -0.2058,0.312276 -0.41537,0.61997 -0.6302,0.925603 -0.0729,0.103841 -0.1427,0.212074 -0.21662,0.315098 -0.066,0.09185 -0.13016,0.184497 -0.19695,0.275711 -0.28834,0.393855 -0.58326,0.780469 -0.88622,1.161927 -0.0465,0.05848 -0.091,0.11903 -0.13786,0.177243 -0.24136,0.300365 -0.49798,0.593583 -0.74837,0.886215 -0.0883,0.103161 -0.16653,0.212949 -0.25601,0.315099 -0.16131,0.184489 -0.32747,0.370164 -0.49234,0.551423 -0.12805,0.140487 -0.26375,0.275112 -0.39388,0.413565 -0.22323,0.23802 -0.45994,0.457177 -0.68927,0.689279 -0.3064,0.309515 -0.60884,0.627166 -0.92561,0.925603 -0.0841,0.07942 -0.17113,0.157669 -0.25602,0.236324 -0.35353,0.326959 -0.71746,0.652021 -1.08314,0.96499 -0.38245,0.327816 -0.7663,0.652613 -1.16193,0.964988 -0.0732,0.05779 -0.14299,0.120028 -0.21663,0.177244 -0.0962,0.07479 -0.19847,0.142767 -0.29541,0.216631 -0.37766,0.28735 -0.75387,0.573939 -1.14223,0.846827 -0.0506,0.03561 -0.10676,0.06309 -0.15755,0.09847 -0.4395,0.305999 -0.88616,0.598909 -1.33917,0.886215 -0.41473,0.263026 -0.8348,0.521148 -1.2604,0.768054 -0.0915,0.05306 -0.18369,0.10523 -0.2757,0.157549 -0.14255,0.08113 -0.28948,0.157032 -0.43326,0.236324 -0.37935,0.209087 -0.75541,0.414492 -1.14223,0.610503 -0.11068,0.05608 -0.22354,0.102557 -0.33479,0.157549 -0.2451,0.12119 -0.50045,0.238605 -0.74837,0.354486 -0.33428,0.156246 -0.66513,0.326184 -1.00438,0.472648 -0.3994,0.172442 -0.79533,0.333696 -1.20131,0.492343 -0.11597,0.04518 -0.238,0.07408 -0.35448,0.118155 -0.44614,0.169183 -0.88571,0.34008 -1.33918,0.492342 -0.059,0.01978 -0.11808,0.03958 -0.17724,0.05906 -0.42926,0.141409 -0.86381,0.267771 -1.29978,0.393874 -0.0859,0.0249 -0.16986,0.05445 -0.25602,0.07878 -0.11038,0.03108 -0.224,0.04871 -0.33479,0.07877 -0.47508,0.129375 -0.95601,0.263454 -1.43764,0.37418 -0.0586,0.01344 -0.11838,0.02621 -0.17724,0.03939 -0.40454,0.09055 -0.81164,0.178711 -1.22101,0.256017 -0.37351,0.07083 -0.74568,0.137453 -1.12254,0.196938 -0.0527,0.0083 -0.10479,0.01163 -0.15755,0.01966 -0.0396,0.0063 -0.0785,0.01374 -0.11808,0.01966 -0.58013,0.0871 -1.16547,0.156877 -1.75274,0.216627 -0.4818,0.049 -0.97119,0.0879 -1.45734,0.11816 -0.41059,0.0256 -0.82661,0.0469 -1.24069,0.0591 -0.0263,6.3e-4 -0.0525,-6.3e-4 -0.0788,0 -0.0522,0.001 -0.10525,-0.001 -0.15755,0 -0.29608,0.007 -0.58883,0.0201 -0.88622,0.0197 -0.0929,0 -0.18298,6.3e-4 -0.27571,0 -0.36841,-0.003 -0.73263,-0.006 -1.10285,-0.0197 -0.36361,-0.0133 -0.72225,-0.0355 -1.08314,-0.0591 -0.22324,-0.0151 -0.44582,-0.04 -0.66959,-0.0591 -0.41596,-0.0347 -0.82873,-0.0896 -1.24069,-0.13786 -0.0853,-0.0101 -0.17064,-0.009 -0.25603,-0.0197 -0.11159,-0.014 -0.22361,-0.0245 -0.33479,-0.0394 -0.38943,-0.05187 -0.7764,-0.113432 -1.16193,-0.177246 -0.23004,-0.03819 -0.46087,-0.07589 -0.68927,-0.118155 -0.52921,-0.09791 -1.05439,-0.21481 -1.5755,-0.334792 -0.30945,-0.07117 -0.61948,-0.137997 -0.9256,-0.216631 -0.13318,-0.03428 -0.26127,-0.08248 -0.39387,-0.118156 -0.32264,-0.08666 -0.64625,-0.161159 -0.96499,-0.256016 -0.29093,-0.08678 -0.57862,-0.182071 -0.86653,-0.275712 -0.30208,-0.09806 -0.60757,-0.190042 -0.90591,-0.295404 -0.27834,-0.09853 -0.55188,-0.210203 -0.82713,-0.315099 -0.322,-0.122368 -0.64767,-0.24337 -0.96499,-0.37418 -0.15758,-0.06515 -0.31616,-0.129707 -0.47265,-0.196936 -0.44784,-0.191934 -0.88152,-0.402022 -1.31947,-0.610504 -0.14556,-0.06938 -0.2888,-0.145425 -0.43326,-0.216631 -0.35587,-0.175176 -0.7145,-0.345821 -1.06346,-0.531728 -0.15024,-0.08012 -0.30391,-0.154216 -0.45296,-0.236324 -0.41241,-0.227036 -0.81882,-0.467204 -1.221,-0.708973 -0.14405,-0.0867 -0.29045,-0.16743 -0.43326,-0.256017 -0.28727,-0.178076 -0.56507,-0.365949 -0.84684,-0.551423 -0.31226,-0.205614 -0.61996,-0.415545 -0.92559,-0.630197 -0.19652,-0.137996 -0.39721,-0.27195 -0.59081,-0.413567 -0.22021,-0.161091 -0.43339,-0.326575 -0.64989,-0.492342 -0.28575,-0.218798 -0.56793,-0.442927 -0.84684,-0.669584 -0.22347,-0.181624 -0.43073,-0.384472 -0.64989,-0.571116 -0.21656,-0.18446 -0.43777,-0.362232 -0.64989,-0.551423 -0.17955,-0.160071 -0.35531,-0.328875 -0.53172,-0.492343 -0.3074,-0.285126 -0.60855,-0.571507 -0.9059,-0.86652 -0.21167,-0.209641 -0.42358,-0.415571 -0.63021,-0.630198 -0.0996,-0.103584 -0.19705,-0.210392 -0.29541,-0.315099 -0.38326,-0.407435 -0.75771,-0.816338 -1.12252,-1.2407 -0.0242,-0.0281 -0.0547,-0.0506 -0.0788,-0.07877 -0.29085,-0.340357 -0.56819,-0.692979 -0.84684,-1.043764 -0.15486,-0.195185 -0.30201,-0.392576 -0.45295,-0.590811 -0.18457,-0.242058 -0.37269,-0.482006 -0.55142,-0.728664 -0.14919,-0.206202 -0.28826,-0.420973 -0.43326,-0.630199 -0.19937,-0.287357 -0.39938,-0.573365 -0.59082,-0.866521 -0.18153,-0.278119 -0.35757,-0.563844 -0.53172,-0.846828 -0.10041,-0.163077 -0.1975,-0.327615 -0.29541,-0.492342 -0.17608,-0.296179 -0.36377,-0.585068 -0.53172,-0.886215 -0.17955,-0.322106 -0.34186,-0.656792 -0.51205,-0.984683 -0.0924,-0.177993 -0.1861,-0.35216 -0.2757,-0.531729 -0.19073,-0.382367 -0.37358,-0.772226 -0.55143,-1.161926 -0.0658,-0.144233 -0.13288,-0.288115 -0.19693,-0.433261 -0.15275,-0.346388 -0.31054,-0.691945 -0.45296,-1.043765 -0.10494,-0.258979 -0.19613,-0.52612 -0.29541,-0.787747 -0.13137,-0.34708 -0.27261,-0.691823 -0.39386,-1.043763 -0.0544,-0.157279 -0.10525,-0.314506 -0.15755,-0.472648 -0.14148,-0.429108 -0.26778,-0.863937 -0.39388,-1.299782 -0.0628,-0.216258 -0.11838,-0.432183 -0.17724,-0.649892 -0.0636,-0.235825 -0.11823,-0.471317 -0.17725,-0.708971 -0.12261,-0.491523 -0.25179,-0.978841 -0.35448,-1.477026 -0.003,-0.01253 0.003,-0.02679 0,-0.03938 -0.1214,-0.591845 -0.24213,-1.191691 -0.33479,-1.792124 -0.005,-0.03207 0.005,-0.06633 0,-0.09847 -0.0752,-0.495991 -0.14164,-0.995435 -0.19693,-1.496719 -0.0237,-0.215837 -0.0391,-0.432964 -0.059,-0.649891 -0.038,-0.412433 -0.0741,-0.825143 -0.0985,-1.240702 -0.0121,-0.202588 -0.0106,-0.407056 -0.0196,-0.610503 -0.0136,-0.326347 -0.0343,-0.656639 -0.0394,-0.984683 -0.003,-0.211558 -0.0196,-0.417795 -0.0196,-0.630197 0,-0.212401 0.0161,-0.418641 0.0196,-0.630198 0.005,-0.275308 0.009,-0.550836 0.0196,-0.827133 0.008,-0.20409 0.0282,-0.407266 0.0394,-0.610505 0.0248,-0.439354 0.0384,-0.87801 0.0788,-1.319475 0.029,-0.323197 0.0611,-0.644226 0.0985,-0.96499 0.0121,-0.09901 0.027,-0.196313 0.0394,-0.295405 0.0106,-0.08648 0.0279,-0.169755 0.0394,-0.256017 0.0722,-0.548851 0.16028,-1.093515 0.25601,-1.634572 0.0968,-0.547125 0.19473,-1.09597 0.3151,-1.634575 0.0369,-0.164928 0.0793,-0.328344 0.11823,-0.492341 0.12503,-0.525256 0.26662,-1.039422 0.41357,-1.5558 0.16992,-0.59706 0.35293,-1.18799 0.55143,-1.77243 0.005,-0.01178 -0.003,-0.0276 0,-0.03938 0.15561,-0.45666 0.3197,-0.910372 0.49234,-1.358865 0.0889,-0.231584 0.18248,-0.460125 0.27572,-0.689277 0.1545,-0.378604 0.32585,-0.750275 0.49234,-1.122539 0.067,-0.150211 0.12804,-0.303875 0.19693,-0.452954 0.13182,-0.284648 0.2748,-0.566126 0.41356,-0.846828 0.1793,-0.363516 0.36093,-0.726869 0.55143,-1.083151 0.0957,-0.178788 0.19684,-0.354701 0.29541,-0.53173 0.19643,-0.353325 0.40321,-0.698 0.6105,-1.043764 0.0939,-0.156516 0.17956,-0.317639 0.27572,-0.472648 0.19865,-0.32048 0.40263,-0.631697 0.61049,-0.945297 0.10676,-0.161153 0.22555,-0.313264 0.33479,-0.472648 0.29149,-0.425187 0.5781,-0.84868 0.88622,-1.260394 0.32538,-0.434779 0.66106,-0.86083 1.00437,-1.280088 0.23343,-0.285467 0.46735,-0.568501 0.70898,-0.846827 0.0335,-0.0386 0.0648,-0.07971 0.0985,-0.118171 0.39005,-0.44558 0.79077,-0.873321 1.20132,-1.299782 0.16526,-0.171482 0.3239,-0.343815 0.49234,-0.512035 0.14057,-0.140624 0.29042,-0.2752 0.43325,-0.413566 0.28696,-0.277514 0.57104,-0.559074 0.86653,-0.827134 0.18125,-0.164741 0.36694,-0.33115 0.55142,-0.492343 0.13635,-0.118925 0.2755,-0.237553 0.41357,-0.354485 0.25958,-0.220266 0.52213,-0.436677 0.78775,-0.649891 0.25943,-0.207846 0.52289,-0.409621 0.78774,-0.610503 0.2243,-0.170387 0.44135,-0.346653 0.66959,-0.512035 0.18747,-0.135656 0.38114,-0.26169 0.57112,-0.393874 0.43923,-0.305999 0.8864,-0.598907 1.33916,-0.886215 0.46139,-0.292777 0.92342,-0.574047 1.39825,-0.846828 0.0918,-0.05277 0.1834,-0.105547 0.27572,-0.157548 0.36834,-0.207417 0.74657,-0.395682 1.12254,-0.590811 0.19754,-0.102587 0.39133,-0.215994 0.59081,-0.315099 0.26483,-0.131473 0.53907,-0.248858 0.80744,-0.37418 0.33409,-0.156269 0.66531,-0.326158 1.00437,-0.472647 0.20782,-0.08959 0.42044,-0.170121 0.6302,-0.256017 0.30705,-0.126022 0.6148,-0.236552 0.9256,-0.354487 0.34708,-0.131398 0.69182,-0.272617 1.04377,-0.393873 0.15727,-0.05431 0.31451,-0.105305 0.47265,-0.15755 0.4291,-0.141409 0.86393,-0.26777 1.29978,-0.393873 0.20122,-0.05841 0.40802,-0.102496 0.61049,-0.157548 0.35933,-0.09736 0.71963,-0.208603 1.08317,-0.295406 0.16972,-0.04069 0.34151,-0.07982 0.51203,-0.118155 0.40444,-0.09057 0.81171,-0.178713 1.221,-0.256019 0.37339,-0.07085 0.74579,-0.137437 1.12255,-0.196936 0.0918,-0.01434 0.18371,-0.02564 0.2757,-0.03939 0.57998,-0.08713 1.16561,-0.156863 1.75274,-0.216631 0.55552,-0.05655 1.11269,-0.106302 1.67396,-0.13786 0.0728,-0.0041 0.14375,-0.01601 0.21663,-0.01969 0.066,-0.0033 0.13092,0.003 0.19693,0 0.22509,-0.01012 0.44369,-0.03334 0.6696,-0.0394 z"
     style="fill:#000000;stroke:none;stroke-width:0.63019734999999999" />
  <path
     inkscape:connector-curvature="0"
     id="path6679-0-0"
     d="m 529.27679,9.8875111 c -1.5654,0 -3.1036,0.10837 -4.61262,0.3137899 l 0,21.83151 c -3.26147,1.28101 -5.85554,3.87033 -7.13859,7.13074 l -21.83152,0 c -0.20635,1.51238 -0.31378,3.0593 -0.31378,4.62832 0,1.56273 0.10905,3.0982 0.31378,4.60478 l 21.81583,0 c 1.27996,3.27089 3.88537,5.87035 7.15428,7.15427 l 0,21.82367 c 1.50902,0.20542 3.04722,0.31379 4.61262,0.31379 1.56366,0 3.1052,-0.10882 4.61262,-0.31379 l 0,-21.82367 c 3.26891,-1.28392 5.88216,-3.88338 7.16212,-7.15427 l 21.81583,0 c 0.20474,-1.50658 0.30594,-3.04205 0.30594,-4.60478 0,-1.56902 -0.0996,-3.11594 -0.30594,-4.62832 l -21.83936,0 c -1.28305,-3.26041 -3.87712,-5.84973 -7.13859,-7.13074 l 0,-21.83151 c -1.50742,-0.2049699 -3.04896,-0.3137899 -4.61262,-0.3137899 z m -0.008,26.3578499 c 4.16858,0 7.56219,3.37793 7.56219,7.54651 0,4.16857 -3.39361,7.53866 -7.56219,7.53866 -4.16858,0 -7.53866,-3.37009 -7.53866,-7.53866 0,-4.16858 3.37008,-7.54651 7.53866,-7.54651 z"
     style="fill:#000000;stroke:none;stroke-width:0.58705741000000000" />
  <path
     inkscape:connector-curvature="0"
     id="path6679-3"
     d="m 259.03785,161.96015 -1.06159,2.53762 -0.30655,1.8223 0.0625,0.68125 -2.74766,0.36332 -0.12489,-0.66989 -0.76639,-1.6974 -1.67471,-2.16861 -1.72011,0.45983 -0.36333,2.72495 0.18166,1.83934 0.23275,0.64717 -2.56598,1.06159 -0.28953,-0.61878 -1.17513,-1.44195 -2.17995,-1.65768 -1.53847,0.89128 0.34062,2.71927 0.65853,1.73147 0.39172,0.57337 -2.19699,1.67471 -0.44281,-0.52796 -1.49872,-1.07294 -2.54895,-1.0332 -1.26029,1.25461 1.03889,2.53759 1.0843,1.5044 0.52795,0.44849 -1.68606,2.18563 -0.56202,-0.39171 -1.73147,-0.64718 -2.7363,-0.35197 -0.89128,1.53846 1.6747,2.19699 1.42492,1.16945 0.62446,0.2952 -1.06159,2.54896 -0.64717,-0.23275 -1.82798,-0.18167 -2.7363,0.36333 -0.46551,1.72579 2.18563,1.68039 1.68606,0.76071 0.66988,0.13057 -0.35197,2.73629 -0.68692,-0.0511 -1.82798,0.29519 -2.5376,1.0616 0,1.78256 2.5376,1.06159 1.82798,0.28953 0.68692,-0.0454 0.35197,2.73061 -0.66988,0.13624 -1.68606,0.75504 -2.18563,1.68606 0.46551,1.72012 2.7363,0.36901 1.82798,-0.18735 0.64717,-0.23275 1.06159,2.55465 -0.62446,0.28951 -1.42492,1.17514 -1.6747,2.19698 0.89128,1.53846 2.7363,-0.35765 1.73147,-0.64718 0.56202,-0.38603 1.68606,2.17995 -0.52795,0.45417 -1.0843,1.49872 -1.03889,2.53759 1.26029,1.26029 2.54895,-1.03888 1.49872,-1.07295 0.44281,-0.52228 2.19699,1.66903 -0.39172,0.57338 -0.65853,1.73147 -0.34062,2.72494 1.53847,0.89129 2.17995,-1.66336 1.17513,-1.43627 0.28953,-0.62446 2.56598,1.0616 -0.23275,0.64717 -0.18166,1.84501 0.36333,2.71927 1.72011,0.46551 1.67471,-2.17428 0.76639,-1.69741 0.12489,-0.66989 2.74766,0.36901 -0.0625,0.68124 0.30655,1.81662 1.06159,2.53761 1.76555,0 1.06159,-2.53761 0.30655,-1.81662 -0.0625,-0.68124 2.74766,-0.36901 0.12489,0.66989 0.75504,1.69741 1.68606,2.17428 1.72011,-0.46551 0.36333,-2.71927 -0.18166,-1.84501 -0.23275,-0.64717 2.54896,-1.0616 0.30655,0.62446 1.17513,1.43627 2.17995,1.66336 1.53847,-0.89129 -0.34062,-2.72494 -0.65853,-1.73147 -0.39172,-0.57338 2.19699,-1.66903 0.43713,0.52228 1.5044,1.07295 2.54895,1.03888 1.26029,-1.26029 -1.05024,-2.53759 -1.07295,-1.49872 -0.52795,-0.45417 1.68606,-2.17995 0.56202,0.38603 1.73147,0.64718 2.7363,0.35765 0.89128,-1.53846 -1.6747,-2.19698 -1.4306,-1.17514 -0.61878,-0.28951 1.05023,-2.55465 0.64717,0.23275 1.83934,0.18735 2.7363,-0.36901 0.44848,-1.72012 -2.1686,-1.68606 -1.68606,-0.75504 -0.66988,-0.13624 0.35197,-2.73061 0.68692,0.0454 1.82798,-0.28953 2.5376,-1.06159 0,-1.78256 -2.5376,-1.0616 -1.82798,-0.29519 -0.68692,0.0511 -0.35197,-2.73629 0.66988,-0.13057 1.68606,-0.76071 2.1686,-1.68039 -0.44848,-1.72579 -2.7363,-0.36333 -1.83934,0.18167 -0.64717,0.23275 -1.05023,-2.54896 0.61878,-0.2952 1.4306,-1.16945 1.6747,-2.19699 -0.89128,-1.53846 -2.7363,0.35197 -1.73147,0.64718 -0.56202,0.39171 -1.68606,-2.18563 0.52795,-0.44849 1.07295,-1.5044 1.05024,-2.53759 -1.26029,-1.25461 -2.54895,1.0332 -1.5044,1.07294 -0.43713,0.52796 -2.19699,-1.67471 0.39172,-0.57337 0.65853,-1.73147 0.34062,-2.71927 -1.53847,-0.89128 -2.17995,1.65768 -1.17513,1.44195 -0.30655,0.61878 -2.54896,-1.06159 0.23275,-0.64717 0.18166,-1.83934 -0.36333,-2.72495 -1.72011,-0.45983 -1.68606,2.16861 -0.75504,1.6974 -0.12489,0.66989 -2.74766,-0.36332 0.0625,-0.68125 -0.30655,-1.8223 -1.06159,-2.53762 -1.76555,0 z m 0.87426,9.19103 c 0.1995,0 0.39779,6.5e-4 0.59608,0.006 5.59984,5.36684 -1.91272,9.64604 -2.08344,13.48847 -2.55029,0.39308 -4.77551,1.77771 -6.26737,3.7468 -4.04976,-2.60183 -4.23583,-8.61298 -9.13425,-8.44733 -0.43006,0.0145 -0.89874,0.0825 -1.40788,0.1987 4.22587,-5.46939 10.84832,-8.99231 18.29686,-8.99231 z m 2.98608,0.19301 c 7.42206,0.95633 13.74403,5.42818 17.23528,11.69456 -1.7763,7.6814 -9.22902,3.3538 -12.6937,5.04681 -1.57178,-1.91066 -3.85887,-3.2065 -6.44903,-3.49133 0.23212,-5.23279 6.26049,-8.52392 1.90745,-13.25005 z m -20.52223,10.42291 c 5.36678,-0.10482 5.64733,6.96966 8.51545,8.86743 -0.45212,1.12317 -0.70395,2.34854 -0.70395,3.63325 0,1.32847 0.26757,2.59325 0.74936,3.7468 -4.68487,2.30755 -10.54386,-1.25216 -12.36443,5.14901 -1.14189,-2.7382 -1.77121,-5.74321 -1.77121,-8.89581 0,-4.45126 1.25599,-8.61022 3.43457,-12.13735 0.79337,-0.23566 1.50302,-0.35089 2.14021,-0.36333 z m 38.80775,3.41185 c 1.19518,2.78994 1.85636,5.86172 1.85636,9.08883 0,4.30927 -1.18147,8.34353 -3.23587,11.79674 -7.6352,2.47106 -7.67399,-6.03804 -10.78624,-8.33379 0.4107,-1.07646 0.63583,-2.24225 0.63583,-3.46295 0,-1.42317 -0.30783,-2.77201 -0.85723,-3.9909 4.67389,-2.3439 10.53614,1.22038 12.38715,-5.09793 z m -21.26592,1.53845 c 4.16778,0 7.55037,3.3826 7.55037,7.55038 0,4.16779 -3.38259,7.5447 -7.55037,7.5447 -4.16779,0 -7.5447,-3.37691 -7.5447,-7.5447 0,-4.16778 3.37691,-7.55038 7.5447,-7.55038 z m 7.87395,13.27277 c 4.29789,2.94489 4.1529,9.78044 10.68405,8.06129 -4.21638,5.66264 -10.96219,9.33293 -18.56368,9.33293 -0.11971,0 -0.23837,-0.004 -0.35765,-0.006 -5.99361,-5.36844 1.28853,-9.65033 1.77689,-13.48847 2.64887,-0.38563 4.95277,-1.83124 6.46039,-3.90007 z m -15.56057,0.2441 c 1.55883,2.0051 3.88676,3.38391 6.53987,3.69571 -0.4165,5.19217 -6.41028,8.48505 -1.61226,13.28978 -7.58286,-0.89971 -14.03806,-5.46757 -17.54183,-11.88189 -7.9e-4,-0.002 8e-4,-0.004 0,-0.006 1.71884,-7.73897 9.09058,-3.53168 12.61422,-5.0979 z"
     style="fill:#000000;stroke:none" />
  <g
     id="g8035"
     transform="matrix(0.09454048,0,0,0.09454048,619.88151,56.014065)"
     inkscape:label="Gear100"
     style="fill:#000000;stroke:none">
    <path
       style="fill:#000000;stroke:none;stroke-width:0.44616633999999999"
       d="m 417.625,125.875 -2.53125,4.28125 -2.25,4.3125 -1.90625,0.0625 -2.53125,-4.15625 -2.78125,-4.125 -1.65625,0.0937 -2.21875,4.4375 -2,4.4375 -1.875,0.1875 -2.8125,-4 -3.03125,-3.9375 -1.625,0.21875 -1.96875,4.5625 -1.71875,4.5625 -1.84375,0.3125 -3.0625,-3.8125 -3.25,-3.75 -1.65625,0.3125 -1.65625,4.6875 -1.40625,4.65625 -1.84375,0.4063 -3.28125,-3.59375 -3.5,-3.53125 -1.625,0.40625 -1.34375,4.78125 -1.125,4.71875 -1.8125,0.53125 -3.5,-3.375 -3.71875,-3.3125 -1.5625,0.5 -1.09375,4.875 -0.8125,4.78125 -1.78125,0.65625 -3.6875,-3.1875 -3.90625,-3.0625 -1.5625,0.625 -0.75,4.90625 -0.53125,4.84375 -1.71875,0.75 -3.90625,-2.9375 -4.09375,-2.8125 -1.5,0.71875 -0.46875,4.9375 -0.21875,4.875 -1.65625,0.84375 -4.0625,-2.65625 -4.28125,-2.5625 -1.46875,0.8125 -0.125,4.96875 L 313,163 l -1.625,0.9375 -4.21875,-2.40625 -4.4375,-2.28125 -1.40625,0.90625 0.1875,4.9375 0.375,4.875 -1.5625,1.0625 -4.34375,-2.15625 -4.5625,-2 -1.34375,0.96875 0.46875,4.96875 0.71875,4.8125 -1.5,1.15625 -4.5,-1.875 -4.65625,-1.6875 -1.28125,1.0625 0.78125,4.875 1,4.78125 -1.40625,1.25 -4.59375,-1.59375 -4.78125,-1.40625 -1.21875,1.15625 1.09375,4.84375 1.3125,4.6875 -1.34375,1.34375 -4.6875,-1.3125 -4.84375,-1.09375 -1.125,1.21875 1.375,4.75 1.59375,4.625 -1.25,1.40625 -4.75,-1 -4.90625,-0.8125 -1.0625,1.28125 1.6875,4.6875 1.875,4.5 -1.15625,1.46875 -4.8125,-0.6875 -4.9375,-0.46875 -0.96875,1.34375 1.96875,4.53125 2.15625,4.375 -1.0625,1.5625 -4.84375,-0.40625 -4.96875,-0.15625 -0.90625,1.40625 2.28125,4.40625 2.4375,4.21875 -0.96875,1.625 -4.875,-0.0625 -4.96875,0.125 -0.8125,1.46875 2.5625,4.25 2.6875,4.0625 -0.875,1.6875 -4.84375,0.21875 -4.96875,0.4375 -0.6875,1.53125 2.8125,4.09375 2.90625,3.875 -0.75,1.75 -4.84375,0.5 -4.90625,0.78125 -0.59375,1.53125 3.0625,3.90625 3.15625,3.71875 -0.625,1.78125 -4.8125,0.8125 -4.84375,1.0625 -0.53125,1.59375 3.3125,3.71875 L 218.25,284 l -0.53125,1.8125 -4.75,1.125 -4.78125,1.375 -0.40625,1.625 3.53125,3.5 3.59375,3.25 -0.40625,1.84375 -4.65625,1.4375 -4.6875,1.65625 -0.3125,1.625 3.75,3.28125 3.8125,3.03125 -0.3125,1.875 -4.53125,1.71875 -4.59375,1.9375 -0.1875,1.65625 3.9375,3.03125 3.96875,2.78125 -0.15625,1.875 -4.4375,2 -4.4375,2.25 -0.125,1.65625 4.125,2.78125 4.15625,2.53125 -0.0625,1.875 -4.3125,2.28125 -4.28125,2.5 0,1.6875 4.28125,2.5 4.3125,2.28125 0.0625,1.875 -4.15625,2.53125 -4.125,2.78125 0.125,1.65625 4.4375,2.25 4.4375,2 0.15625,1.875 -3.96875,2.78125 -3.9375,3.03125 0.1875,1.65625 4.59375,1.96875 4.53125,1.6875 0.3125,1.875 -3.8125,3.03125 -3.75,3.28125 0.3125,1.625 4.6875,1.65625 4.65625,1.4375 0.40625,1.84375 -3.59375,3.25 -3.53125,3.53125 0.40625,1.59375 4.78125,1.375 4.75,1.125 0.53125,1.8125 -3.40625,3.5 -3.3125,3.6875 0.53125,1.59375 4.84375,1.0625 4.8125,0.84375 0.625,1.75 -3.15625,3.71875 -3.0625,3.90625 0.59375,1.53125 4.90625,0.78125 4.84375,0.53125 0.75,1.71875 -2.90625,3.875 -2.8125,4.125 0.6875,1.5 4.96875,0.4375 4.84375,0.21875 0.875,1.6875 -2.6875,4.0625 -2.5625,4.28125 0.8125,1.4375 4.96875,0.15625 4.875,-0.0937 0.96875,1.625 -2.4375,4.21875 -2.28125,4.40625 0.90625,1.40625 4.96875,-0.15625 4.84375,-0.40625 1.0625,1.5625 -2.15625,4.375 -1.96875,4.5625 0.96875,1.34375 4.9375,-0.5 4.8125,-0.6875 1.15625,1.5 -1.875,4.46875 -1.6875,4.6875 1.0625,1.28125 4.90625,-0.8125 4.75,-1 1.25,1.4375 -1.59375,4.59375 -1.375,4.78125 1.125,1.1875 4.84375,-1.09375 4.6875,-1.28125 1.34375,1.3125 -1.3125,4.71875 -1.09375,4.84375 1.21875,1.125 4.78125,-1.40625 4.59375,-1.59375 1.40625,1.25 -1,4.78125 -0.78125,4.90625 1.28125,1.0625 4.65625,-1.71875 4.5,-1.875 1.5,1.15625 -0.71875,4.8125 -0.46875,4.96875 1.34375,0.96875 4.5625,-2 4.34375,-2.15625 1.5625,1.0625 -0.375,4.875 -0.1875,4.96875 1.40625,0.875 4.4375,-2.28125 4.21875,-2.40625 1.625,0.96875 -0.0937,4.84375 0.125,4.96875 1.46875,0.8125 4.28125,-2.53125 4.0625,-2.6875 1.65625,0.84375 0.21875,4.875 0.46875,4.9375 1.5,0.71875 4.09375,-2.8125 3.90625,-2.9375 1.71875,0.75 0.53125,4.84375 0.75,4.90625 1.5625,0.625 3.90625,-3.0625 3.6875,-3.1875 1.78125,0.65625 0.8125,4.78125 1.09375,4.875 1.5625,0.5 3.71875,-3.28125 3.5,-3.40625 1.8125,0.53125 1.125,4.71875 1.34375,4.78125 1.625,0.40625 3.5,-3.5 3.28125,-3.625 1.84375,0.40625 1.40625,4.65625 1.65625,4.6875 1.65625,0.3125 3.25,-3.71875 3.0625,-3.8125 1.84375,0.28125 1.71875,4.5625 1.96875,4.5625 1.625,0.21875 3.03125,-3.9375 2.8125,-4 1.875,0.1875 2,4.4375 2.21875,4.4375 1.65625,0.0937 2.78125,-4.125 2.53125,-4.15625 1.90625,0.0625 2.25,4.3125 2.53125,4.28125 1.65625,0 2.53125,-4.28125 2.25,-4.3125 1.875,-0.0625 2.5625,4.15625 2.75,4.125 1.6875,-0.0937 2.21875,-4.4375 2,-4.4375 1.875,-0.1875 2.8125,4 3.03125,3.9375 1.625,-0.21875 1.96875,-4.5625 1.71875,-4.5625 1.84375,-0.28125 3.03125,3.8125 3.28125,3.71875 1.65625,-0.3125 1.65625,-4.6875 1.40625,-4.65625 1.84375,-0.40625 3.28125,3.625 3.5,3.5 1.59375,-0.40625 1.375,-4.78125 1.125,-4.71875 1.8125,-0.53125 3.5,3.40625 3.71875,3.28125 1.5625,-0.5 1.09375,-4.875 0.8125,-4.78125 1.78125,-0.65625 3.6875,3.1875 3.90625,3.0625 1.5625,-0.625 0.75,-4.90625 0.53125,-4.84375 1.71875,-0.75 3.90625,2.9375 4.09375,2.8125 1.5,-0.71875 0.4375,-4.9375 0.21875,-4.875 1.6875,-0.84375 4.0625,2.6875 4.28125,2.53125 1.46875,-0.8125 0.125,-4.96875 -0.0937,-4.84375 1.625,-0.96875 4.21875,2.40625 4.4375,2.28125 1.40625,-0.875 -0.1875,-4.96875 -0.40625,-4.875 1.5625,-1.0625 4.375,2.15625 4.5625,2 1.34375,-0.96875 -0.5,-4.96875 -0.6875,-4.8125 1.5,-1.15625 4.5,1.875 4.65625,1.71875 1.28125,-1.0625 -0.78125,-4.90625 -1,-4.78125 1.40625,-1.25 4.59375,1.59375 4.78125,1.40625 1.21875,-1.125 -1.125,-4.84375 -1.28125,-4.71875 1.34375,-1.3125 4.6875,1.28125 4.84375,1.09375 1.125,-1.1875 -1.40625,-4.78125 -1.5625,-4.59375 1.25,-1.4375 4.75,1 4.90625,0.8125 1.0625,-1.28125 -1.6875,-4.6875 -1.875,-4.46875 1.15625,-1.5 4.8125,0.6875 4.9375,0.5 0.96875,-1.34375 -1.96875,-4.5625 -2.15625,-4.375 1.0625,-1.5625 4.84375,0.40625 4.96875,0.15625 0.90625,-1.40625 -2.28125,-4.40625 -2.4375,-4.21875 0.96875,-1.625 4.875,0.0937 4.96875,-0.15625 0.78125,-1.4375 -2.53125,-4.28125 -2.6875,-4.0625 0.875,-1.6875 4.84375,-0.21875 4.96875,-0.4375 0.6875,-1.5 -2.8125,-4.125 -2.90625,-3.875 0.75,-1.71875 4.8125,-0.53125 4.9375,-0.78125 0.59375,-1.53125 -3.0625,-3.90625 -3.15625,-3.71875 0.625,-1.75 4.8125,-0.84375 4.84375,-1.0625 0.53125,-1.59375 -3.3125,-3.6875 -3.40625,-3.5 0.53125,-1.8125 4.75,-1.125 4.78125,-1.375 0.40625,-1.59375 -3.53125,-3.53125 -3.625,-3.25 0.4375,-1.84375 4.65625,-1.4375 4.6875,-1.65625 0.3125,-1.625 -3.75,-3.28125 -3.8125,-3.03125 0.28125,-1.875 4.5625,-1.6875 4.59375,-1.96875 0.1875,-1.65625 -3.9375,-3.03125 -4,-2.78125 0.1875,-1.875 4.4375,-2 4.4375,-2.25 0.125,-1.65625 -4.125,-2.78125 -4.15625,-2.53125 0.0625,-1.875 4.3125,-2.28125 4.28125,-2.5 0,-1.6875 -4.28125,-2.5 -4.3125,-2.28125 -0.0625,-1.875 4.15625,-2.53125 4.125,-2.78125 -0.125,-1.65625 -4.4375,-2.25 -4.4375,-2 -0.1875,-1.875 4,-2.78125 3.9375,-3.03125 -0.1875,-1.65625 -4.59375,-1.9375 -4.5625,-1.71875 -0.28125,-1.875 3.8125,-3.03125 3.75,-3.28125 -0.3125,-1.625 -4.6875,-1.65625 -4.65625,-1.4375 -0.4375,-1.84375 3.625,-3.25 3.53125,-3.5 -0.40625,-1.625 -4.78125,-1.375 -4.75,-1.125 -0.53125,-1.8125 3.40625,-3.46875 3.3125,-3.71875 -0.53125,-1.59375 -4.84375,-1.0625 -4.8125,-0.8125 -0.625,-1.78125 3.15625,-3.71875 3.0625,-3.90625 -0.59375,-1.53125 -4.9375,-0.78125 -4.8125,-0.5 -0.75,-1.75 2.90625,-3.875 2.8125,-4.09375 -0.6875,-1.53125 -4.96875,-0.4375 -4.84375,-0.21875 -0.875,-1.6875 2.6875,-4.0625 2.53125,-4.25 -0.78125,-1.46875 -4.96875,-0.125 -4.875,0.0625 -0.96875,-1.625 2.4375,-4.21875 2.28125,-4.40625 -0.90625,-1.40625 -4.96875,0.15625 -4.84375,0.40625 -1.0625,-1.5625 2.15625,-4.375 1.96875,-4.53125 -0.96875,-1.34375 -4.9375,0.46875 -4.8125,0.6875 -1.15625,-1.46875 1.875,-4.5 1.6875,-4.6875 -1.0625,-1.28125 -4.90625,0.8125 -4.75,1 -1.25,-1.40625 1.5625,-4.625 1.40625,-4.75 -1.125,-1.21875 -4.84375,1.09375 -4.6875,1.3125 -1.34375,-1.34375 1.28125,-4.6875 1.125,-4.84375 -1.21875,-1.15625 -4.78125,1.40625 -4.59375,1.59375 -1.40625,-1.25 1,-4.78125 0.78125,-4.875 -1.28125,-1.0625 -4.65625,1.6875 -4.5,1.875 -1.5,-1.15625 0.6875,-4.8125 0.5,-4.96875 -1.34375,-0.96875 -4.5625,2 -4.375,2.15625 -1.5625,-1.0625 0.40625,-4.875 0.1875,-4.9375 -1.40625,-0.90625 -4.4375,2.28125 -4.21875,2.40625 -1.625,-0.9375 0.0937,-4.875 -0.125,-4.96875 -1.46875,-0.8125 -4.28125,2.5625 -4.0625,2.65625 -1.6875,-0.84375 -0.21875,-4.875 -0.4375,-4.9375 -1.5,-0.71875 -4.09375,2.8125 -3.90625,2.9375 -1.71875,-0.75 -0.53125,-4.84375 -0.75,-4.90625 -1.5625,-0.625 -3.90625,3.0625 -3.6875,3.1875 -1.78125,-0.65625 -0.8125,-4.78125 -1.09375,-4.875 -1.5625,-0.5 -3.71875,3.3125 -3.5,3.375 -1.8125,-0.53125 -1.125,-4.71875 -1.375,-4.78125 -1.59375,-0.40625 -3.5,3.53125 -3.28125,3.59375 -1.84375,-0.40625 -1.40625,-4.65625 -1.6563,-4.6875 -1.65625,-0.3125 -3.28125,3.75 -3.03125,3.8125 -1.84375,-0.3125 -1.71875,-4.5625 -1.96875,-4.5625 -1.625,-0.21875 -3.03125,3.9375 -2.8125,4 -1.875,-0.1875 -2,-4.4375 -2.21875,-4.4375 -1.6875,-0.0937 -2.75,4.125 -2.5625,4.15625 -1.875,-0.0625 -2.25,-4.3125 -2.53125,-4.28125 -1.65625,0 z m 0.8125,17.46875 c 110.3599,0 199.84375,89.4526 199.84375,199.8125 0,110.3599 -89.48385,199.8125 -199.84375,199.8125 -110.3599,0 -199.8125,-89.4526 -199.8125,-199.8125 0,-110.3599 89.4526,-199.8125 199.8125,-199.8125 z"
       transform="matrix(2.2413165,0,0,2.2413165,-937.88366,-769.12891)"
       id="path8037"
       inkscape:connector-curvature="0" />
  </g>
  <path
     style="fill:#000000;stroke:none"
     d="m 328.55778,164.56644 -0.33818,0.60872 -0.31562,0.58618 -0.27054,0.0225 -0.33818,-0.58618 -0.38327,-0.56362 -0.248,0 -0.29308,0.63126 -0.27054,0.60872 -0.27054,0.0225 -0.38327,-0.56364 -0.42836,-0.54108 -0.22544,0.0451 -0.27054,0.63126 -0.22546,0.63127 -0.27054,0.0451 -0.42836,-0.54108 -0.4509,-0.51853 -0.22545,0.0451 -0.22544,0.65381 -0.20291,0.63126 -0.248,0.0676 -0.45091,-0.49599 -0.49598,-0.49599 -0.20291,0.0676 -0.20291,0.6538 -0.15782,0.65381 -0.24799,0.0676 -0.47344,-0.45091 -0.51854,-0.47345 -0.22545,0.0676 -0.13527,0.67635 -0.11271,0.67635 -0.248,0.0902 -0.51854,-0.4509 -0.54108,-0.42835 -0.22545,0.0902 -0.0902,0.67635 -0.0676,0.67636 -0.248,0.1127 -0.54108,-0.40581 -0.56363,-0.40581 -0.2029,0.1127 -0.0676,0.67635 -0.0451,0.67636 -0.22544,0.1127 -0.56364,-0.36072 -0.58616,-0.36073 -0.20291,0.11271 -0.0225,0.69889 0.0225,0.65381 -0.22546,0.13527 -0.58616,-0.33817 -0.60872,-0.31564 -0.20291,0.13527 0.0225,0.67636 0.0451,0.67635 -0.20291,0.15782 -0.60872,-0.29309 -0.63127,-0.29308 -0.18035,0.13527 0.0676,0.69889 0.0902,0.65381 -0.20291,0.15781 -0.63127,-0.24799 -0.63126,-0.22545 -0.18036,0.13527 0.1127,0.67635 0.13527,0.65381 -0.2029,0.18036 -0.63126,-0.22545 -0.65381,-0.18036 -0.18037,0.15781 0.15783,0.65382 0.18035,0.65381 -0.18035,0.18035 -0.65381,-0.18035 -0.67636,-0.13527 -0.15781,0.15781 0.20291,0.65381 0.2029,0.6538 -0.15782,0.18036 -0.6538,-0.13527 -0.69891,-0.1127 -0.13527,0.18036 0.22546,0.65382 0.27054,0.63125 -0.15782,0.20291 -0.67635,-0.1127 -0.67636,-0.0676 -0.13527,0.20291 0.27055,0.63127 0.29309,0.58616 -0.13527,0.22546 -0.67635,-0.0451 -0.69891,-0.0225 -0.1127,0.18035 0.31563,0.60872 0.33818,0.58618 -0.13527,0.22544 -0.67636,0 -0.69889,0.0225 -0.1127,0.20291 0.36071,0.58616 0.38327,0.56364 -0.13527,0.22544 -0.65381,0.0226 -0.69889,0.0676 -0.0902,0.2029 0.38325,0.58618 0.40581,0.51854 -0.1127,0.24799 -0.6538,0.0676 -0.67635,0.11271 -0.0902,0.2029 0.42835,0.54108 0.42835,0.51854 -0.0902,0.24799 -0.6538,0.11271 -0.67636,0.15781 -0.0676,0.2029 0.4509,0.51855 0.47344,0.49598 -0.0676,0.248 -0.67635,0.15781 -0.6538,0.18037 -0.0451,0.22545 0.47344,0.496 0.49599,0.4509 -0.0451,0.24799 -0.65381,0.20291 -0.63126,0.22545 -0.0451,0.22545 0.51854,0.45091 0.51853,0.42835 -0.0451,0.248 -0.63125,0.24799 -0.63126,0.27054 -0.0225,0.22546 0.54108,0.40581 0.54108,0.38326 0,0.27054 -0.63127,0.27054 -0.60872,0.31563 -0.0225,0.22545 0.58618,0.38327 0.56362,0.36072 0,0.248 -0.60872,0.31563 -0.58616,0.36072 0,0.22545 0.58616,0.33817 0.60872,0.31564 0,0.27054 -0.56362,0.33818 -0.58618,0.40581 0.0225,0.22544 0.60872,0.31564 0.63127,0.27054 0,0.248 -0.54108,0.38326 -0.54108,0.42836 0.0225,0.22545 0.63126,0.27054 0.63125,0.248 0.0451,0.24799 -0.51853,0.42836 -0.51854,0.4509 0.0451,0.22546 0.63126,0.22544 0.65381,0.20291 0.0451,0.248 -0.49599,0.45089 -0.47344,0.496 0.0451,0.22545 0.6538,0.18036 0.67635,0.15782 0.0676,0.248 -0.47344,0.49598 -0.4509,0.496 0.0676,0.22545 0.67636,0.15781 0.6538,0.11271 0.0902,0.248 -0.42835,0.49598 -0.42835,0.54109 0.0902,0.22544 0.67635,0.11271 0.6538,0.0676 0.1127,0.22545 -0.40581,0.54108 -0.38325,0.58617 0.0902,0.20291 0.69889,0.0451 0.65381,0.0451 0.13527,0.22546 -0.38327,0.56363 -0.36071,0.58617 0.1127,0.20291 0.69889,0.0225 0.67636,0 0.13527,0.22545 -0.33818,0.56363 -0.31563,0.63126 0.1127,0.18036 0.69891,-0.0225 0.67635,-0.0451 0.13527,0.20291 -0.29309,0.60871 -0.27055,0.63126 0.13527,0.18037 0.67636,-0.0676 0.67635,-0.0902 0.15782,0.20291 -0.27054,0.63127 -0.22546,0.6538 0.13527,0.15782 0.69891,-0.1127 0.6538,-0.13527 0.15782,0.2029 -0.2029,0.63126 -0.20291,0.67635 0.15781,0.15783 0.67636,-0.15783 0.65381,-0.18035 0.18035,0.20291 -0.18035,0.65381 -0.15783,0.6538 0.18037,0.15782 0.65381,-0.18036 0.63126,-0.22545 0.2029,0.15781 -0.13527,0.67635 -0.1127,0.67636 0.18036,0.13527 0.63126,-0.22545 0.63127,-0.27054 0.20291,0.15781 -0.0902,0.67635 -0.0676,0.6989 0.18035,0.1127 0.63127,-0.27054 0.60872,-0.29308 0.20291,0.13527 -0.0451,0.67635 -0.0225,0.69889 0.20291,0.11271 0.60872,-0.31564 0.58616,-0.31563 0.22546,0.1127 -0.0225,0.67635 0.0225,0.6989 0.20291,0.1127 0.58616,-0.36072 0.56364,-0.36072 0.22544,0.1127 0.0451,0.67635 0.0676,0.67635 0.2029,0.11271 0.56363,-0.40581 0.54108,-0.40581 0.248,0.1127 0.0676,0.67635 0.0902,0.67636 0.22545,0.0902 0.54108,-0.42837 0.51854,-0.45089 0.248,0.0902 0.11271,0.67636 0.13527,0.65381 0.22545,0.0902 0.51854,-0.47344 0.47344,-0.47345 0.24799,0.0902 0.15782,0.65381 0.20291,0.65382 0.20291,0.0676 0.49598,-0.496 0.45091,-0.49599 0.248,0.0451 0.20291,0.6538 0.22544,0.65381 0.22545,0.0451 0.4509,-0.51855 0.42836,-0.54108 0.27054,0.0451 0.22546,0.63126 0.27054,0.63126 0.22544,0.0225 0.42836,-0.54108 0.38327,-0.54108 0.27054,0.0225 0.27054,0.60872 0.29308,0.60871 0.248,0.0225 0.38327,-0.56362 0.33818,-0.58618 0.27054,0.0225 0.31562,0.58616 0.33818,0.58618 0.248,0 0.33818,-0.58618 0.31563,-0.58616 0.24799,-0.0225 0.36073,0.58618 0.38326,0.56362 0.22545,-0.0225 0.31563,-0.60871 0.27054,-0.60872 0.27054,-0.0225 0.38327,0.54108 0.42835,0.54108 0.22546,-0.0225 0.27054,-0.63126 0.22545,-0.63126 0.27054,-0.0451 0.40581,0.54108 0.45091,0.51855 0.24799,-0.0451 0.22545,-0.65381 0.18036,-0.6538 0.27054,-0.0451 0.4509,0.49599 0.47345,0.496 0.22545,-0.0676 0.20292,-0.65382 0.13527,-0.65381 0.27054,-0.0902 0.47344,0.47345 0.51853,0.47344 0.22546,-0.0902 0.13527,-0.65381 0.11271,-0.67636 0.24798,-0.0902 0.51855,0.45089 0.54108,0.42837 0.2029,-0.0902 0.11271,-0.67636 0.0676,-0.67635 0.248,-0.1127 0.54108,0.40581 0.56363,0.40581 0.2029,-0.11271 0.0676,-0.67635 0.0225,-0.67635 0.248,-0.1127 0.56363,0.36072 0.58617,0.36072 0.20291,-0.1127 0.0225,-0.6989 -0.0225,-0.67635 0.22545,-0.1127 0.58617,0.31563 0.60872,0.31564 0.20291,-0.11271 -0.0226,-0.69889 -0.0676,-0.67635 0.22545,-0.13527 0.60872,0.29308 0.63125,0.27054 0.18037,-0.1127 -0.0676,-0.6989 -0.0902,-0.67635 0.20291,-0.15781 0.60872,0.27054 0.65381,0.22545 0.18035,-0.13527 -0.11271,-0.67636 -0.13527,-0.67635 0.20291,-0.15781 0.63127,0.22545 0.6538,0.18036 0.18036,-0.15782 -0.15781,-0.6538 -0.18036,-0.65381 0.18036,-0.20291 0.6538,0.18035 0.67635,0.15783 0.15783,-0.15783 -0.20291,-0.67635 -0.22546,-0.63126 0.18037,-0.2029 0.65381,0.13527 0.67635,0.1127 0.15781,-0.15782 -0.22544,-0.6538 -0.27054,-0.63127 0.15781,-0.20291 0.67635,0.0902 0.67635,0.0676 0.13527,-0.18037 -0.27054,-0.63126 -0.29308,-0.60871 0.13527,-0.20291 0.67635,0.0451 0.67636,0.0225 0.13527,-0.18036 -0.31564,-0.63126 -0.33818,-0.56363 0.13528,-0.22545 0.67635,0 0.67635,-0.0225 0.1127,-0.20291 -0.33817,-0.58617 -0.38326,-0.56363 0.11271,-0.22546 0.67635,-0.0451 0.69889,-0.0451 0.0902,-0.20291 -0.38327,-0.58617 -0.40581,-0.54108 0.0902,-0.22545 0.67635,-0.0676 0.67635,-0.11271 0.0902,-0.22544 -0.42835,-0.54109 -0.42835,-0.49598 0.0902,-0.248 0.6538,-0.11271 0.67636,-0.15781 0.0676,-0.22545 -0.4509,-0.496 -0.47344,-0.49598 0.0676,-0.248 0.6538,-0.15782 0.67635,-0.18036 0.0451,-0.22545 -0.47344,-0.496 -0.51853,-0.45089 0.0676,-0.248 0.6538,-0.20291 0.63127,-0.22544 0.0451,-0.22546 -0.51854,-0.4509 -0.51854,-0.42836 0.0451,-0.24799 0.63127,-0.248 0.63126,-0.27054 0.0225,-0.22545 -0.54108,-0.42836 -0.56362,-0.38326 0.0225,-0.248 0.63126,-0.27054 0.60871,-0.31564 0.0225,-0.22544 -0.58617,-0.40581 -0.56362,-0.33818 0,-0.27054 0.60871,-0.31564 0.58618,-0.33817 0,-0.22545 -0.58618,-0.36072 -0.60871,-0.31563 0,-0.248 0.56362,-0.36072 0.58617,-0.38327 -0.0225,-0.22545 -0.60871,-0.31563 -0.63126,-0.27054 -0.0225,-0.27054 0.56362,-0.38326 0.54108,-0.40581 -0.0225,-0.22546 -0.63126,-0.27054 -0.63127,-0.24799 -0.0451,-0.248 0.51854,-0.42835 0.51854,-0.45091 -0.0451,-0.22545 -0.63127,-0.22545 -0.6538,-0.20291 -0.0676,-0.24799 0.51853,-0.4509 0.47344,-0.496 -0.0451,-0.22545 -0.67635,-0.18037 -0.6538,-0.15781 -0.0676,-0.248 0.47344,-0.49598 0.4509,-0.51855 -0.0676,-0.2029 -0.67636,-0.15781 -0.6538,-0.11271 -0.0902,-0.24799 0.42835,-0.51854 0.42835,-0.54108 -0.0902,-0.2029 -0.67635,-0.11271 -0.67635,-0.0676 -0.0902,-0.24799 0.40581,-0.51854 0.38327,-0.58618 -0.0902,-0.2029 -0.69889,-0.0676 -0.67635,-0.0226 -0.11271,-0.22544 0.38326,-0.56364 0.33817,-0.58616 -0.1127,-0.20291 -0.67635,-0.0225 -0.67635,0 -0.13528,-0.22544 0.33818,-0.58618 0.31564,-0.60872 -0.13527,-0.18035 -0.67636,0.0225 -0.67635,0.0451 -0.13527,-0.22546 0.29308,-0.58616 0.27054,-0.63127 -0.13527,-0.20291 -0.67635,0.0676 -0.67635,0.1127 -0.15781,-0.20291 0.27054,-0.63125 0.22544,-0.65382 -0.15781,-0.18036 -0.67635,0.1127 -0.65381,0.13527 -0.18037,-0.18036 0.22546,-0.6538 0.20291,-0.65381 -0.15783,-0.15781 -0.67635,0.13527 -0.6538,0.18035 -0.18036,-0.18035 0.18036,-0.65381 0.15781,-0.65382 -0.18036,-0.15781 -0.6538,0.18036 -0.63127,0.22545 -0.20291,-0.18036 0.13527,-0.65381 0.11271,-0.67635 -0.18035,-0.13527 -0.65381,0.22545 -0.60872,0.24799 -0.20291,-0.15781 0.0902,-0.65381 0.0676,-0.69889 -0.18037,-0.13527 -0.63125,0.29308 -0.60872,0.29309 -0.22545,-0.15782 0.0676,-0.67635 0.0226,-0.67636 -0.20291,-0.13527 -0.60872,0.31564 -0.58617,0.33817 -0.22545,-0.13527 0.0225,-0.65381 -0.0225,-0.69889 -0.20291,-0.11271 -0.58617,0.36073 -0.56363,0.36072 -0.248,-0.1127 -0.0225,-0.67636 -0.0676,-0.67635 -0.2029,-0.1127 -0.56363,0.40581 -0.54108,0.40581 -0.248,-0.1127 -0.0676,-0.67636 -0.11271,-0.67635 -0.2029,-0.0902 -0.54108,0.42835 -0.51855,0.4509 -0.24798,-0.0902 -0.11271,-0.67635 -0.13527,-0.67635 -0.22546,-0.0676 -0.51853,0.47345 -0.47344,0.45091 -0.27054,-0.0676 -0.13527,-0.65381 -0.20292,-0.6538 -0.22545,-0.0676 -0.47345,0.49599 -0.4509,0.49599 -0.27054,-0.0676 -0.18036,-0.63126 -0.22545,-0.65381 -0.24799,-0.0451 -0.45091,0.51853 -0.40581,0.54108 -0.27054,-0.0451 -0.22545,-0.63127 -0.27054,-0.63126 -0.22546,-0.0451 -0.42835,0.54108 -0.38327,0.56364 -0.27054,-0.0225 -0.27054,-0.60872 -0.31563,-0.63126 -0.22545,0 -0.38326,0.56362 -0.36073,0.58618 -0.24799,-0.0225 -0.31563,-0.58618 -0.33818,-0.60872 -0.248,0 z m -0.36072,2.45741 0,8.97295 c -4.79985,0.11947 -9.13396,2.03424 -12.37725,5.11774 l -6.35771,-6.33517 c 4.8702,-4.70493 11.45633,-7.63257 18.73496,-7.75552 z m 0.96944,0 c 7.26811,0.12861 13.86478,3.03495 18.73497,7.73298 l -6.35771,6.35771 c -3.24358,-3.08383 -7.57792,-4.99721 -12.37726,-5.11774 l 0,-8.97295 z m -20.38076,8.40933 6.35772,6.35771 c -3.08466,3.24353 -5.02076,7.59892 -5.14028,12.39981 l -8.97295,0 c 0.1231,-7.28457 3.04385,-13.88615 7.75551,-18.75752 z m 39.79209,0 c 4.71296,4.87066 7.6323,11.47654 7.75551,18.75752 l -8.97295,0 c -0.11959,-4.79979 -2.05589,-9.15653 -5.14028,-12.39981 l 6.35772,-6.35771 z m -20.38077,1.78106 0,14.04559 c -0.59704,0.0825 -1.14223,0.30618 -1.6007,0.65381 l -9.91984,-9.91984 c 3.02209,-2.86406 7.05685,-4.6612 11.52054,-4.77956 z m 0.96944,0 c 4.46148,0.12034 8.50007,1.91611 11.52054,4.77956 l -9.91984,9.91984 c -0.45854,-0.34779 -1.0035,-0.57129 -1.6007,-0.65381 l 0,-14.04559 z m -13.16634,5.43337 9.9424,9.94238 c -0.34763,0.45847 -0.59387,1.00366 -0.67636,1.60071 l -14.04559,0 c 0.11834,-4.46369 1.91551,-8.52101 4.77955,-11.54309 z m 25.34069,0.0225 c 2.86284,3.02186 4.66123,7.05792 4.77955,11.52055 l -14.02303,0 c -0.0825,-0.59705 -0.32874,-1.14224 -0.67636,-1.60071 l 9.91984,-9.91984 z m -12.67034,9.49149 c 1.38425,0 2.52504,1.11825 2.52504,2.5025 0,1.38424 -1.14079,2.50251 -2.52504,2.50251 -1.38425,0 -2.50251,-1.11827 -2.50251,-2.50251 0,-1.38425 1.11826,-2.5025 2.50251,-2.5025 z m -27.64028,2.97595 8.97295,0 c 0.12059,4.80031 2.05537,9.15602 5.14028,12.39979 l -6.35772,6.35772 c -4.71166,-4.87136 -7.63246,-11.47295 -7.75551,-18.75751 z m 10.19038,0 14.04559,0 c 0.0825,0.59721 0.32856,1.14215 0.67636,1.60069 l -9.9424,9.91984 c -2.86344,-3.02047 -4.65919,-7.05905 -4.77955,-11.52053 z m 20.87676,0 14.02303,0 c -0.12034,4.4605 -1.91723,8.50028 -4.77955,11.52053 l -9.91984,-9.91984 c 0.34778,-0.45854 0.59384,-1.00348 0.67636,-1.60069 z m 15.26302,0 8.97295,0 c -0.12323,7.28096 -3.04255,13.88685 -7.75551,18.75751 l -6.35772,-6.35772 c 3.08474,-3.24355 5.01969,-7.60049 5.14028,-12.39979 z m -20.76403,2.27705 c 0.45847,0.34763 1.00366,0.57132 1.6007,0.65381 l 0,14.04559 c -4.46261,-0.11834 -8.49869,-1.91672 -11.52054,-4.77956 l 9.91984,-9.91984 z m 4.17084,0 9.91984,9.91984 c -3.02025,2.86233 -7.06005,4.65924 -11.52054,4.77956 l 0,-14.04559 c 0.5972,-0.0825 1.14216,-0.30602 1.6007,-0.65381 z m -14.94739,10.77655 c 3.24329,3.08446 7.5774,5.02073 12.37725,5.14028 l 0,8.97295 c -7.28457,-0.1231 -13.88615,-3.04385 -18.75752,-7.75551 l 6.38027,-6.35772 z m 25.72395,0 6.35771,6.35772 c -4.8713,4.70442 -11.46121,7.6268 -18.73497,7.75551 l 0,-8.97295 c 4.79934,-0.12059 9.13368,-2.05548 12.37726,-5.14028 z"
     id="path8037-4"
     inkscape:connector-curvature="0" />
  <path
     id="path8193"
     d="m 383.90444,3.3520126 0,7.5126834 c -3.87341,0.0964 -7.38398,1.6582 -10.00128,4.14654 l -5.31548,-5.3154834 -0.53925,0.5392504 5.31213,5.312133 c -2.48927,2.61748 -4.04674,6.13038 -4.14319,10.00463 l -7.51268,0 0,0.76701 7.51268,0 c 0.0973,3.87379 1.65707,7.3836 4.14654,10.00128 l -5.31548,5.31548 0.53925,0.53925 5.31548,-5.31548 c 2.6173,2.48912 6.12787,4.04671 10.00128,4.14319 l 0,7.51603 0.76701,0 0,-7.51603 c 3.87301,-0.0973 7.38376,-1.6538 10.00128,-4.14319 l 5.31548,5.31548 0.53925,-0.53925 -5.31548,-5.31548 c 2.48934,-2.61751 4.04588,-6.12831 4.14319,-10.00128 l 7.51603,0 0,-0.76701 -7.51603,0 c -0.0965,-3.87336 -1.65412,-7.38399 -4.14319,-10.00128 l 5.31548,-5.315483 -0.53925,-0.5392504 -5.31548,5.3154834 c -2.61752,-2.4886 -6.12827,-4.04927 -10.00128,-4.14654 l 0,-7.5126834 -0.76701,0 z m 0,8.5007534 0,11.33098 c -0.48181,0.0666 -0.92288,0.25537 -1.29286,0.5359 l -8.01174,-8.01173 c 2.43878,-2.31126 5.70246,-3.75963 9.3046,-3.85515 z m 0.76701,0 c 3.60036,0.0971 6.86377,1.54773 9.30125,3.85849 l -8.00839,8.00839 c -0.37004,-0.28066 -0.81092,-0.46931 -1.29286,-0.5359 l 0,-11.33098 z m -10.61086,4.3944 8.01173,8.01174 c -0.28053,0.36998 -0.46933,0.81105 -0.5359,1.29286 l -11.33098,0 c 0.0955,-3.60214 1.54389,-6.86582 3.85515,-9.3046 z m 20.45137,0.003 c 2.31027,2.43859 3.75965,5.69998 3.85514,9.30125 l -11.32763,0 c -0.0666,-0.48181 -0.25537,-0.92288 -0.5359,-1.29286 l 8.00839,-8.00839 z m -10.22569,7.6634 c 1.11707,0 2.02303,0.90261 2.02303,2.01968 0,1.11707 -0.90596,2.02303 -2.02303,2.02303 -1.11707,0 -2.01968,-0.90596 -2.01968,-2.02303 0,-1.11707 0.90261,-2.01968 2.01968,-2.01968 z m -14.08083,2.40486 11.33098,0 c 0.0666,0.48194 0.25524,0.92282 0.5359,1.29286 l -8.00839,8.00839 c -2.31076,-2.43748 -3.76137,-5.70089 -3.85849,-9.30125 z m 16.83403,0 11.32763,0 c -0.0971,3.59956 -1.54529,6.86394 -3.85514,9.30125 l -8.00839,-8.00839 c 0.28066,-0.37004 0.46931,-0.81092 0.5359,-1.29286 z m -4.42789,1.83212 c 0.36998,0.28053 0.81105,0.46933 1.29286,0.5359 l 0,11.32763 c -3.60127,-0.0955 -6.86266,-1.54487 -9.30125,-3.85514 l 8.00839,-8.00839 z m 3.35273,0 8.00839,8.00839 c -2.43731,2.30985 -5.70169,3.75805 -9.30125,3.85514 l 0,-11.32763 c 0.48194,-0.0666 0.92282,-0.25524 1.29286,-0.5359 z"
     style="fill:#000000;fill-opacity:1;stroke:none;stroke-width:0.10718045000000000;stroke-miterlimit:4;stroke-opacity:1;stroke-dasharray:none"
     inkscape:connector-curvature="0" />
  <path
     style="fill:#000000;fill-opacity:1;stroke:none"
     d="m 465.60418,10.982339 0,4.24125 c -3.72964,0.26352 -6.98234,2.23822 -8.97517,5.15163 l -3.65219,-2.10992 -0.85682,1.48872 3.64148,2.10992 c -0.77147,1.5768 -1.19955,3.35265 -1.19955,5.22659 0,1.84849 0.41551,3.591 1.16742,5.15162 l -3.60935,2.0885 0.85682,1.48872 3.60935,-2.07779 c 1.98923,2.94463 5.26403,4.93995 9.01801,5.20518 l 0,4.16628 1.71364,0 0,-4.16628 c 3.75264,-0.26853 7.02046,-2.27001 9.0073,-5.21589 l 3.62006,2.0885 0.85682,-1.48872 -3.62006,-2.0885 c 0.75191,-1.56062 1.17813,-3.30313 1.17813,-5.15162 0,-1.87394 -0.43879,-3.64979 -1.21026,-5.22659 l 3.65219,-2.10992 -0.85682,-1.48872 -3.6629,2.10992 c -1.99092,-2.91061 -5.23932,-4.88507 -8.96446,-5.15163 l 0,-4.24125 -1.71364,0 z m 0,5.83708 0,5.70855 c -2.16084,0.40012 -3.79142,2.28513 -3.79142,4.56256 0,0.52565 0.0858,1.0284 0.24633,1.49943 l -4.94812,2.85964 c -0.6203,-1.32551 -0.96392,-2.79968 -0.96392,-4.35907 0,-5.40685 4.16147,-9.8387 9.45713,-10.27111 z m 1.71364,0.0107 c 5.28923,0.43786 9.44642,4.85745 9.44642,10.2604 0,1.5556 -0.34762,3.02534 -0.96392,4.34836 l -4.94812,-2.84892 c 0.1605,-0.47104 0.25704,-0.97379 0.25704,-1.49944 0,-2.27379 -1.63572,-4.15831 -3.79142,-4.56255 l 0,-5.69785 z m -0.85682,6.89739 c 1.85903,0 3.36301,1.50398 3.36301,3.36301 0,1.85904 -1.50398,3.36302 -3.36301,3.36302 -1.85903,0 -3.36301,-1.50398 -3.36301,-3.36302 0,-1.85903 1.50398,-3.36301 3.36301,-3.36301 z m -3.5558,6.36188 c 0.85238,1.00936 2.12996,1.64937 3.5558,1.64937 1.42326,0 2.69273,-0.64316 3.54509,-1.64937 l 4.93741,2.84892 c -1.85788,2.69646 -4.96044,4.46617 -8.4825,4.46617 -3.52033,0 -6.63189,-1.77194 -8.49321,-4.46617 l 4.93741,-2.84892 z"
     id="path3063"
     inkscape:connector-curvature="0" />
  <path
     style="fill:#000000;fill-opacity:1;stroke:none"
     d="m 428.71202,7.6093979 0,4.6192501 c -4.04734,0.28961 -7.57598,2.43406 -9.73882,5.59663 l -3.9793,-2.29218 -0.93083,1.61732 3.96766,2.29217 c -0.83829,1.71315 -1.3148,3.63038 -1.3148,5.66643 0,2.00816 0.46304,3.91283 1.2799,5.60826 l -3.93276,2.2689 0.93083,1.61732 3.93276,-2.2689 c 2.159,3.19593 5.712,5.37495 9.78536,5.66643 l 0,4.51454 1.86166,0 0,-4.51454 c 4.07534,-0.29014 7.63717,-2.46927 9.79699,-5.66643 l 3.92113,2.2689 0.93083,-1.61732 -3.92112,-2.2689 c 0.81685,-1.69543 1.26826,-3.6001 1.26826,-5.60826 0,-2.03581 -0.46506,-3.95342 -1.30317,-5.66643 l 3.95603,-2.29217 -0.93083,-1.61732 -3.96767,2.29218 c -2.16367,-3.16379 -5.70114,-5.30835 -9.75045,-5.59663 l 0,-4.6192501 -1.86166,0 z m 0,6.3529301 0,6.19001 c -1.13671,0.21316 -2.14373,0.80371 -2.87394,1.6406 l -5.36391,-3.09501 c 1.85843,-2.64772 4.82938,-4.45361 8.23785,-4.73561 z m 1.86166,0 c 3.41266,0.27887 6.38043,2.08488 8.23785,4.7356 l -5.36391,3.09501 c -0.73261,-0.83965 -1.73259,-1.42924 -2.87394,-1.6406 l 0,-6.19002 z m -11.05362,6.34128 5.37555,3.09501 c -0.19249,0.53469 -0.30252,1.10906 -0.30252,1.7104 0,0.57532 0.10237,1.12559 0.27925,1.64059 l -5.37555,3.10665 c -0.67485,-1.44086 -1.05882,-3.05185 -1.05882,-4.74724 0,-1.72128 0.38772,-3.34907 1.08209,-4.80541 z m 20.23394,0 c 0.69319,1.45644 1.08209,3.08399 1.08209,4.80541 0,1.6904 -0.37732,3.29802 -1.04718,4.73561 l -5.36392,-3.09502 c 0.17662,-0.51465 0.26762,-1.06571 0.26762,-1.64059 0,-0.60212 -0.10956,-1.17514 -0.30252,-1.7104 l 5.36391,-3.09501 z m -10.11115,1.1519 c 2.01961,0 3.65351,1.6339 3.65351,3.65351 0,2.01962 -1.6339,3.65351 -3.65351,3.65351 -2.01961,0 -3.65351,-1.6339 -3.65351,-3.65351 0,-2.01961 1.6339,-3.65351 3.65351,-3.65351 z m -3.85131,6.91141 c 0.73402,0.86651 1.75846,1.48087 2.92048,1.69877 l 0,6.20166 c -3.44052,-0.2854 -6.4415,-2.11366 -8.29603,-4.80542 l 5.37555,-3.09501 z m 7.71426,0 5.36391,3.09501 c -1.85365,2.695 -4.85093,4.53507 -8.29603,4.81706 l 0,-6.2133 c 1.16932,-0.21652 2.19537,-0.82633 2.93212,-1.69877 z"
     id="path3063-2"
     inkscape:connector-curvature="0" />
  <path
     style="fill:#000000;stroke:none"
     d="m 84.655544,163.80646 -0.86142,2.03608 -0.23493,1.45658 0.047,0.54818 -2.20837,0.29758 -0.094,-0.54818 -0.61083,-1.34694 -1.34694,-1.7385 -1.37827,0.36023 -0.28192,2.17704 0.14096,1.4879 0.18794,0.51686 -2.05174,0.84575 -0.23493,-0.50119 -0.93973,-1.14333 -1.75417,-1.33129 -1.23731,0.7048 0.28192,2.17704 0.53251,1.39393 0.31325,0.45421 -1.76983,1.34694 -0.34457,-0.42288 -1.205984,-0.86141 -2.05175,-0.8301 -1.00238,1.00238 0.8301,2.03608 0.87708,1.20599 0.42288,0.36023 -1.36261,1.75416 -0.43854,-0.31324 -1.39393,-0.51685 -2.19271,-0.28192 -0.70479,1.22165 1.33128,1.76982 1.14334,0.93973 0.50119,0.23493 -0.84576,2.03609 -0.51685,-0.18795 -1.47225,-0.14096 -2.1927,0.29758 -0.36023,1.37827 1.7385,1.34695 1.34695,0.61082 0.54817,0.094 -0.28191,2.1927 -0.54818,-0.0313 -1.47224,0.23493 -2.03609,0.84576 0,1.42525 2.03609,0.86142 1.47224,0.21927 0.54818,-0.0313 0.28191,2.1927 -0.54817,0.10964 -1.34695,0.59516 -1.7385,1.36261 0.36023,1.37827 2.1927,0.28192 1.47225,-0.14096 0.51685,-0.18795 0.84576,2.05175 -0.50119,0.23493 -1.14334,0.92407 -1.33128,1.76982 0.70479,1.22165 2.19271,-0.28192 1.39393,-0.51685 0.43854,-0.31324 1.36261,1.75416 -0.42288,0.36023 -0.87708,1.20599 -0.8301,2.03608 1.00238,1.00238 2.05175,-0.8301 1.205984,-0.86141 0.34457,-0.42288 1.76983,1.34694 -0.31325,0.45421 -0.53251,1.39393 -0.28192,2.17704 1.23731,0.72046 1.75417,-1.33128 0.93973,-1.159 0.23493,-0.50119 2.05174,0.84575 -0.18794,0.53252 -0.14096,1.47224 0.28192,2.17704 1.37827,0.37589 1.34694,-1.7385 0.61083,-1.3626 0.094,-0.54818 2.20837,0.29758 -0.047,0.54818 0.23493,1.45658 0.86142,2.03608 1.4096,0 0.84575,-2.03608 0.2506,-1.45658 -0.047,-0.54818 2.19271,-0.29758 0.10963,0.54818 0.59516,1.3626 1.36261,1.7385 1.37827,-0.37589 0.28192,-2.17704 -0.14096,-1.47224 -0.18794,-0.53252 2.05174,-0.84575 0.23493,0.50119 0.93973,1.159 1.75417,1.33128 1.22165,-0.72046 -0.26626,-2.17704 -0.53251,-1.39393 -0.31325,-0.45421 1.76983,-1.34694 0.34457,0.42288 1.205976,0.86141 2.03608,0.8301 1.01805,-1.00238 -0.84576,-2.03608 -0.86142,-1.20599 -0.42288,-0.36023 1.34695,-1.75416 0.4542,0.31324 1.39393,0.51685 2.19271,0.28192 0.70479,-1.22165 -1.33128,-1.76982 -1.14334,-0.92407 -0.50119,-0.23493 0.8301,-2.05175 0.53251,0.18795 1.47225,0.14096 2.1927,-0.28192 0.36023,-1.37827 -1.7385,-1.36261 -1.36261,-0.59516 -0.53251,-0.10964 0.28191,-2.1927 0.54818,0.0313 1.47224,-0.21927 2.03609,-0.86142 0,-1.42525 -2.03609,-0.84576 -1.47224,-0.23493 -0.54818,0.0313 -0.28191,-2.1927 0.53251,-0.094 1.36261,-0.61082 1.7385,-1.34695 -0.36023,-1.37827 -2.1927,-0.29758 -1.47225,0.14096 -0.53251,0.18795 -0.8301,-2.03609 0.50119,-0.23493 1.14334,-0.93973 1.33128,-1.76982 -0.70479,-1.22165 -2.19271,0.28192 -1.39393,0.51685 -0.4542,0.31324 -1.34695,-1.75416 0.42288,-0.36023 0.86142,-1.20599 0.84576,-2.03608 -1.01805,-1.00238 -2.03608,0.8301 -1.205976,0.86141 -0.34457,0.42288 -1.76983,-1.34694 0.31325,-0.45421 0.53251,-1.39393 0.26626,-2.17704 -1.22165,-0.7048 -1.75417,1.33129 -0.93973,1.14333 -0.23493,0.50119 -2.05174,-0.84575 0.18794,-0.51686 0.14096,-1.4879 -0.28192,-2.17704 -1.37827,-0.36023 -1.36261,1.7385 -0.59516,1.34694 -0.10963,0.54818 -2.19271,-0.29758 0.047,-0.54818 -0.2506,-1.45658 -0.84575,-2.03608 -1.4096,0 z m -0.34457,7.39254 0,4.08783 c -4.5434,0.32511 -8.50428,2.73034 -10.93219,6.28053 l -3.50833,-2.02042 c 3.12949,-4.76531 8.39672,-8.01113 14.44052,-8.34794 z m 2.09874,0 c 6.04145,0.34116 11.31129,3.58229 14.440516,8.34794 l -3.508326,2.02042 c -2.42885,-3.55155 -6.38658,-5.95692 -10.93219,-6.28053 l 0,-4.08783 z m -2.09874,6.02994 0,6.954 c -1.27603,0.23929 -2.4067,0.89301 -3.2264,1.83248 l -6.01428,-3.47701 c 2.08622,-2.97223 5.41446,-4.99291 9.24068,-5.30947 z m 2.09874,0 c 3.83093,0.31305 7.1556,2.33387 9.24068,5.30947 l -6.01428,3.47701 c -0.82239,-0.94256 -1.94516,-1.59521 -3.2264,-1.83248 l 0,-6.954 z m -17.588624,4.13481 3.508324,2.02042 c -0.94103,1.92312 -1.4879,4.07325 -1.4879,6.35884 0,2.25429 0.52394,4.39296 1.44092,6.29619 l -3.461344,1.9891 c -1.26724,-2.50721 -1.9891,-5.33057 -1.9891,-8.33227 0,-2.99674 0.72579,-5.82814 1.9891,-8.33228 z m 33.0785,0 c 1.2645,2.50414 1.9891,5.33554 1.9891,8.33228 0,3.0017 -0.72066,5.82506 -1.9891,8.33227 l -3.445676,-1.9891 c 0.91697,-1.90323 1.4096,-4.0419 1.4096,-6.29619 0,-2.28532 -0.51575,-4.43587 -1.45658,-6.35884 l 3.492656,-2.02042 z m -27.909986,2.99148 6.0456,3.46134 c -0.21608,0.60022 -0.34457,1.25141 -0.34457,1.92644 0,0.64584 0.11469,1.27002 0.31325,1.84814 l -6.02994,3.477 c -0.75756,-1.61746 -1.19032,-3.42195 -1.19032,-5.32514 0,-1.93224 0.4265,-3.75295 1.20598,-5.38778 z m 22.72581,0 c 0.77815,1.63495 1.20599,3.45538 1.20599,5.38778 0,1.89759 -0.4227,3.69569 -1.17466,5.30948 l -6.01428,-3.46134 c 0.19827,-0.57773 0.29759,-1.20279 0.29759,-1.84814 0,-0.67591 -0.12796,-1.32558 -0.34457,-1.92644 l 6.02993,-3.46134 z m -11.35507,1.28429 c 2.26714,0 4.10349,1.83636 4.10349,4.10349 0,2.26715 -1.83635,4.10349 -4.10349,4.10349 -2.26714,0 -4.10349,-1.83635 -4.10349,-4.10349 0,-2.26713 1.83635,-4.10349 4.10349,-4.10349 z m -4.32276,7.75278 c 0.82398,0.97271 1.96895,1.66617 3.27339,1.91078 l 0,6.96967 c -3.86221,-0.32038 -7.22149,-2.38177 -9.30332,-5.40345 l 6.02993,-3.477 z m 8.66118,0 6.01427,3.477 c -2.08084,3.02531 -5.43598,5.10256 -9.30332,5.41911 l 0,-6.98533 c 1.31265,-0.24305 2.46201,-0.93142 3.28905,-1.91078 z m -16.36697,4.46372 c 2.42362,3.58763 6.40658,6.03163 10.97918,6.35884 l 0,3.96253 c -6.04257,-0.33674 -11.31079,-3.56856 -14.44052,-8.33228 l 3.46134,-1.98909 z m 24.07276,0 3.445676,1.98909 c -3.129476,4.76394 -8.400386,7.99119 -14.440516,8.33228 l 0,-3.96253 c 4.57483,-0.32571 8.57031,-2.76983 10.99484,-6.35884 z"
     id="path6679-5"
     inkscape:connector-curvature="0" />
  <path
     style="fill:#000000;stroke:none"
     d="m 137.73697,165.32118 -0.78001,1.87781 -0.23112,1.34335 0.0433,0.50557 -2.02226,0.26 -0.10111,-0.49112 -0.56334,-1.25669 -1.2278,-1.60336 -1.28558,0.34667 -0.26,2.00782 0.13,1.3578 0.17333,0.49112 -1.89225,0.78001 -0.21667,-0.46223 -0.86668,-1.06891 -1.61781,-1.22779 -1.12668,0.66445 0.24555,2.00781 0.49112,1.28558 0.2889,0.4189 -1.63225,1.24224 -0.31779,-0.39001 -1.11224,-0.79445 -1.87781,-0.76557 -0.9389,0.92446 0.76557,1.87781 0.8089,1.11224 0.39001,0.33223 -1.24225,1.6178 -0.41889,-0.28889 -1.28558,-0.47667 -2.02226,-0.26001 -0.65001,1.12669 1.2278,1.63225 1.05446,0.85223 0.46223,0.21668 -0.78001,1.89225 -0.47668,-0.17334 -1.3578,-0.13 -2.02226,0.26001 -0.33222,1.27113 1.60336,1.25669 1.25669,0.5489 0.49112,0.10111 -0.26001,2.02226 -0.50556,-0.0289 -1.3578,0.20222 -1.87782,0.79446 0,1.31447 1.87782,0.78001 1.3578,0.21667 0.50556,-0.0289 0.26001,2.02226 -0.49112,0.0867 -1.25669,0.56334 -1.60336,1.24225 0.33222,1.27113 2.02226,0.27445 1.3578,-0.13 0.47668,-0.17334 0.78001,1.87781 -0.46223,0.21667 -1.05446,0.86668 -1.2278,1.63225 0.65001,1.12669 2.02226,-0.26001 1.28558,-0.47667 0.41889,-0.28889 1.24225,1.6178 -0.39001,0.33223 -0.8089,1.11224 -0.76557,1.87781 0.9389,0.92446 1.87781,-0.76557 1.11224,-0.79445 0.31779,-0.39001 1.63225,1.24224 -0.2889,0.4189 -0.49112,1.27113 -0.24555,2.02226 1.12668,0.65001 1.61781,-1.2278 0.86668,-1.05446 0.21667,-0.46223 1.89225,0.78001 -0.17333,0.47668 -0.13,1.37224 0.26,2.00782 1.28558,0.33222 1.2278,-1.60336 0.56334,-1.24224 0.10111,-0.50557 2.02226,0.27445 -0.0433,0.50557 0.23112,1.34335 0.78001,1.87781 1.30002,0 0.79446,-1.87781 0.21667,-1.34335 -0.0433,-0.50557 2.0367,-0.27445 0.0867,0.50557 0.56334,1.24224 1.24225,1.60336 1.27113,-0.33222 0.26,-2.00782 -0.13,-1.37224 -0.17333,-0.47668 1.89225,-0.78001 0.21667,0.46223 0.86668,1.05446 1.61781,1.2278 1.14113,-0.65001 -0.26,-2.02226 -0.49112,-1.27113 -0.27445,-0.4189 1.6178,-1.24224 0.31779,0.39001 1.11224,0.79445 1.89225,0.76557 0.92446,-0.92446 -0.78001,-1.87781 -0.79446,-1.11224 -0.39001,-0.33223 1.25669,-1.6178 0.40445,0.28889 1.28558,0.47667 2.02226,0.26001 0.65001,-1.12669 -1.2278,-1.63225 -1.05446,-0.86668 -0.46223,-0.21667 0.78001,-1.87781 0.47668,0.17334 1.3578,0.13 2.02226,-0.27445 0.33222,-1.27113 -1.60336,-1.24225 -1.24224,-0.56334 -0.50557,-0.0867 0.26001,-2.02226 0.50556,0.0289 1.3578,-0.21667 1.87782,-0.78001 0,-1.31447 -1.87782,-0.79446 -1.3578,-0.20222 -0.50556,0.0289 -0.26001,-2.02226 0.50557,-0.10111 1.24224,-0.5489 1.60336,-1.25669 -0.33222,-1.27113 -2.02226,-0.26001 -1.3578,0.13 -0.47668,0.17334 -0.78001,-1.89225 0.46223,-0.21668 1.05446,-0.85223 1.2278,-1.63225 -0.65001,-1.12669 -2.02226,0.26001 -1.28558,0.47667 -0.40445,0.28889 -1.25669,-1.6178 0.39001,-0.33223 0.79446,-1.11224 0.78001,-1.87781 -0.92446,-0.92446 -1.89225,0.76557 -1.11224,0.79445 -0.31779,0.39001 -1.6178,-1.24224 0.27445,-0.4189 0.49112,-1.28558 0.26,-2.00781 -1.14113,-0.66445 -1.61781,1.22779 -0.86668,1.06891 -0.21667,0.46223 -1.89225,-0.78001 0.17333,-0.49112 0.13,-1.3578 -0.26,-2.00782 -1.27113,-0.34667 -1.24225,1.60336 -0.56334,1.25669 -0.0867,0.49112 -2.0367,-0.26 0.0433,-0.50557 -0.21667,-1.34335 -0.79446,-1.87781 -1.30002,0 z m -0.26001,6.81789 0,4.3623 c -4.00031,0.28264 -7.49715,2.40747 -9.63461,5.53232 l -3.75562,-2.18115 c 2.89407,-4.42445 7.78093,-7.41977 13.39023,-7.71347 z m 1.83448,0 c 5.60359,0.2981 10.4817,3.29283 13.37579,7.71347 l -3.77007,2.18115 c -2.1354,-3.12185 -5.61023,-5.24642 -9.60572,-5.53232 l 0,-4.3623 z m -1.83448,6.08122 0,6.12455 c -2.31766,0.42916 -4.0734,2.45404 -4.0734,4.89675 0,0.5638 0.0878,1.09815 0.26,1.60336 l -5.3012,3.06228 c -0.66531,-1.42171 -1.04002,-2.99308 -1.04002,-4.66564 0,-5.79925 4.47464,-10.55751 10.15462,-11.0213 z m 1.83448,0.0144 c 5.67309,0.46964 10.12573,5.2118 10.12573,11.00686 0,1.6685 -0.36454,3.23215 -1.02557,4.65119 l -5.31565,-3.04783 c 0.17215,-0.50522 0.27445,-1.03956 0.27445,-1.60336 0,-2.43881 -1.74681,-4.46318 -4.05896,-4.89675 l 0,-6.11011 z m -16.14917,3.22117 3.75562,2.1667 c -0.82746,1.69124 -1.28558,3.60905 -1.28558,5.61899 0,1.98264 0.43577,3.84399 1.24225,5.51787 l -3.72673,2.15226 c -1.17786,-2.3194 -1.84893,-4.94802 -1.84893,-7.72791 0,-2.78681 0.68001,-5.40425 1.86337,-7.72791 z m 30.44942,0 c 1.18447,2.32366 1.86337,4.9411 1.86337,7.72791 0,2.77989 -0.66996,5.40851 -1.84893,7.72791 l -3.74117,-2.15226 c 0.80648,-1.67388 1.27113,-3.53523 1.27113,-5.51787 0,-2.00994 -0.47256,-3.92775 -1.30002,-5.61899 l 3.75562,-2.1667 z m -15.22471,4.17451 c 1.99395,0 3.61117,1.61723 3.61117,3.61118 0,1.99396 -1.61722,3.59673 -3.61117,3.59673 -1.99395,0 -3.61117,-1.60277 -3.61117,-3.59673 0,-1.99395 1.61722,-3.61118 3.61117,-3.61118 z m -3.8134,6.8179 c 0.91424,1.08261 2.28408,1.7767 3.8134,1.7767 1.52655,0 2.88474,-0.69747 3.79895,-1.7767 l 5.30121,3.06228 c -1.99272,2.89215 -5.32249,4.78119 -9.10016,4.78119 -3.77582,0 -7.1182,-1.89143 -9.1146,-4.78119 l 5.3012,-3.06228 z m -6.77456,3.91451 c 2.13359,3.15833 5.65152,5.30563 9.67794,5.5901 l 0,4.29008 c -5.61345,-0.29392 -10.51143,-3.29809 -13.40467,-7.72792 l 3.72673,-2.15226 z m 21.17592,0 3.72673,2.15226 c -2.89327,4.42602 -7.78249,7.4296 -13.39023,7.72792 l 0,-4.29008 c 4.02499,-0.28802 7.53247,-2.43042 9.6635,-5.5901 z"
     id="path6679-8"
     inkscape:connector-curvature="0" />
  <path
     style="fill:none;stroke:#000000;stroke-width:0.96513402px;stroke-linecap:butt;stroke-linejoin:miter;stroke-opacity:1"
     d="m 0.50020441,159.38734 743.99719559,0"
     id="path4154"
     inkscape:connector-curvature="0" />
  <path
     inkscape:connector-curvature="0"
     id="path7564-3"
     d="m 381.0448,164.22071 -0.56561,0.17862 -0.98237,3.70126 0.30761,2.14336 0.49615,0.87322 -2.02429,1.4686 -0.66483,-0.74423 -1.95483,-0.9526 -3.82033,-0.20838 -0.34731,0.4763 1.37929,3.57226 1.50829,1.55791 0.92284,0.40684 -0.77399,2.38151 -0.98238,-0.20838 -2.13343,0.36715 -3.21504,2.08382 0,0.58545 3.21504,2.0739 2.13343,0.37707 0.98238,-0.20838 0.77399,2.38151 -0.92284,0.40684 -1.50829,1.55791 -1.37929,3.57226 0.34731,0.4763 3.82033,-0.20838 1.95483,-0.9526 0.66483,-0.74423 2.02429,1.4686 -0.49615,0.8633 -0.30761,2.15328 0.98237,3.70126 0.56561,0.17862 2.96696,-2.41128 1.01214,-1.91513 0.10916,-1.00222 2.50058,0 0.0992,1.00222 1.02207,1.91513 2.96696,2.41128 0.56561,-0.17862 0.97245,-3.70126 -0.29769,-2.15328 -0.50607,-0.8633 2.02428,-1.4686 0.67476,0.74423 1.9449,0.9526 3.82034,0.20838 0.3473,-0.4763 -1.37929,-3.57226 -1.50829,-1.55791 -0.91291,-0.40684 0.77399,-2.38151 0.98238,0.20838 2.13343,-0.37707 3.21504,-2.0739 0,-0.58545 -3.21504,-2.08382 -2.13343,-0.36715 -0.98238,0.20838 -0.77399,-2.38151 0.91291,-0.40684 1.50829,-1.55791 1.37929,-3.57226 -0.3473,-0.4763 -3.82034,0.20838 -1.9449,0.9526 -0.67476,0.74423 -2.02428,-1.4686 0.50607,-0.87322 0.29769,-2.14336 -0.97245,-3.70126 -0.56561,-0.17862 -2.96696,2.41128 -1.02207,1.91513 -0.0992,1.00222 -2.50058,0 -0.10916,-1.00222 -1.01214,-1.91513 -2.96696,-2.41128 z m 5.33855,13.56469 c 2.11169,0 3.82034,1.70864 3.82034,3.82033 0,2.1117 -1.70865,3.83026 -3.82034,3.83026 -2.11169,0 -3.82034,-1.71856 -3.82034,-3.83026 0,-2.11169 1.70865,-3.82033 3.82034,-3.82033 z"
     style="fill:#000000;stroke:none" />
</svg>
